<?xml version="1.0" encoding="utf-8"?>
<!-- Generator: Adobe Illustrator 19.0.0, SVG Export Plug-In . SVG Version: 6.00 Build 0)  -->
<svg version="1.2" baseProfile="tiny" id="Layer_1" xmlns="http://www.w3.org/2000/svg" xmlns:xlink="http://www.w3.org/1999/xlink"
	 x="0px" y="0px" viewBox="0 0 252.6 253" xml:space="preserve">
<g>
	<path fill="#ED1C24" d="M107.6,4.6v12.6c-54.9,9-96.9,56.7-96.9,114.2c0,17.9,4.1,34.9,11.3,50l96.8-53V15.8L107.6,4.6z"/>
	<path fill="#C4161C" d="M244.1,176.6l-9.7-3.4c5-13,7.8-27.1,7.8-41.9c0-63.1-50.5-114.4-113.3-115.7v109l100.9,58.9c0,0,0,0,0,0
		l0,0L244.1,176.6z"/>
	<path fill="#9E0B0F" d="M127.2,135.2l-100.4,55c0,0,0,0.1,0.1,0.1l0,0l-5.2,15.1l11.5-5.6c21.1,28.7,55,47.3,93.4,47.3
		c41.5,0,78-21.9,98.4-54.8L127.2,135.2z"/>
	<g>
		<path fill="#FFFFFF" d="M55.5,73.5v4.2h4.4v-4.2h1.9v10.4h-1.9v-4.6h-4.4v4.6h-1.9V73.5H55.5z"/>
		<path fill="#FFFFFF" d="M65,75.3c-0.6,0-1.1-0.5-1.1-1c0-0.6,0.4-1,1.1-1c0.6,0,1.1,0.4,1.1,1C66,74.8,65.6,75.3,65,75.3L65,75.3z
			 M64,83.9v-7.5h1.9v7.5H64z"/>
		<path fill="#FFFFFF" d="M74.8,82.8c0,1.6-0.3,2.7-1.1,3.4c-0.8,0.7-1.9,0.9-2.9,0.9c-1,0-2-0.2-2.6-0.6l0.4-1.4
			c0.5,0.3,1.3,0.6,2.2,0.6c1.2,0,2.2-0.6,2.2-2.3v-0.6h0c-0.4,0.7-1.2,1.1-2.2,1.1c-1.9,0-3.2-1.5-3.2-3.7c0-2.5,1.6-4,3.4-4
			c1.2,0,1.8,0.6,2.2,1.2h0l0.1-1h1.7c0,0.5-0.1,1.1-0.1,2.2V82.8z M72.9,79.4c0-0.2,0-0.4-0.1-0.5c-0.2-0.7-0.7-1.2-1.5-1.2
			c-1.1,0-1.9,0.9-1.9,2.5c0,1.3,0.6,2.3,1.8,2.3c0.7,0,1.3-0.5,1.5-1.2c0.1-0.2,0.1-0.4,0.1-0.7V79.4z"/>
		<path fill="#FFFFFF" d="M76.8,72.9h1.9v4.5h0c0.2-0.4,0.6-0.6,0.9-0.9c0.4-0.2,0.8-0.3,1.3-0.3c1.3,0,2.6,0.9,2.6,3.3v4.4h-1.9
			v-4.2c0-1.1-0.4-1.9-1.5-1.9c-0.7,0-1.3,0.5-1.5,1.1c-0.1,0.2-0.1,0.4-0.1,0.6v4.5h-1.9V72.9z"/>
		<path fill="#FFFFFF" d="M38.8,100.6c-0.4,0.2-1.4,0.5-2.7,0.5c-3.3,0-5.3-2.1-5.3-5.2c0-3.4,2.4-5.5,5.6-5.5
			c1.3,0,2.1,0.2,2.5,0.4l-0.4,1.5c-0.5-0.2-1.2-0.4-2-0.4c-2.1,0-3.7,1.3-3.7,3.8c0,2.3,1.3,3.7,3.6,3.7c0.8,0,1.6-0.2,2.1-0.4
			L38.8,100.6z"/>
		<path fill="#FFFFFF" d="M43.4,101.1c-2.1,0-3.8-1.5-3.8-3.9c0-2.5,1.6-4,3.9-4c2.2,0,3.7,1.6,3.7,3.9
			C47.3,99.8,45.3,101.1,43.4,101.1L43.4,101.1z M43.5,99.7c1.1,0,1.8-1.1,1.8-2.6c0-1.2-0.5-2.5-1.8-2.5c-1.3,0-1.9,1.3-1.9,2.6
			C41.6,98.6,42.3,99.7,43.5,99.7L43.5,99.7z"/>
		<path fill="#FFFFFF" d="M48.8,95.6c0-0.9,0-1.6-0.1-2.2h1.6l0.1,1.1h0c0.4-0.6,1-1.3,2.3-1.3c1,0,1.8,0.6,2.1,1.4h0
			c0.3-0.4,0.6-0.7,0.9-0.9c0.4-0.3,0.9-0.4,1.5-0.4c1.2,0,2.5,0.9,2.5,3.3v4.4h-1.9v-4.2c0-1.3-0.4-2-1.3-2c-0.6,0-1.1,0.5-1.3,1
			c-0.1,0.2-0.1,0.4-0.1,0.6v4.5h-1.9v-4.4c0-1.1-0.4-1.8-1.3-1.8c-0.7,0-1.2,0.6-1.4,1.1c-0.1,0.2-0.1,0.4-0.1,0.6v4.5h-1.9V95.6z"
			/>
		<path fill="#FFFFFF" d="M62,95.6c0-0.9,0-1.6-0.1-2.2h1.6l0.1,1.1h0c0.4-0.6,1-1.3,2.3-1.3c1,0,1.8,0.6,2.1,1.4h0
			c0.3-0.4,0.6-0.7,0.9-0.9c0.4-0.3,0.9-0.4,1.5-0.4c1.2,0,2.5,0.9,2.5,3.3v4.4h-1.9v-4.2c0-1.3-0.4-2-1.3-2c-0.6,0-1.1,0.5-1.3,1
			c-0.1,0.2-0.1,0.4-0.1,0.6v4.5h-1.9v-4.4c0-1.1-0.4-1.8-1.3-1.8c-0.7,0-1.2,0.6-1.4,1.1c-0.1,0.2-0.1,0.4-0.1,0.6v4.5H62V95.6z"/>
		<path fill="#FFFFFF" d="M76.4,97.7c0,1.4,1.1,1.9,2.3,1.9c0.9,0,1.5-0.1,2.1-0.3l0.3,1.3c-0.6,0.3-1.5,0.5-2.6,0.5
			c-2.4,0-3.9-1.5-3.9-3.8c0-2.1,1.3-4.1,3.7-4.1c2.4,0,3.2,2,3.2,3.7c0,0.4,0,0.6-0.1,0.8H76.4z M79.7,96.3c0-0.7-0.3-1.8-1.6-1.8
			c-1.2,0-1.7,1.1-1.7,1.8H79.7z"/>
		<path fill="#FFFFFF" d="M83.1,95.8c0-1,0-1.8-0.1-2.4h1.6l0.1,1.4h0c0.4-1.1,1.3-1.6,2.1-1.6c0.2,0,0.3,0,0.4,0V95
			c-0.2,0-0.3,0-0.6,0c-0.9,0-1.5,0.6-1.7,1.4c0,0.2,0,0.4,0,0.6v3.9h-1.9V95.8z"/>
		<path fill="#FFFFFF" d="M94,100.7c-0.4,0.2-1.2,0.4-2.1,0.4c-2.4,0-3.9-1.5-3.9-3.9c0-2.3,1.5-4,4.2-4c0.7,0,1.4,0.2,1.8,0.3
			L93.6,95c-0.3-0.2-0.8-0.3-1.4-0.3c-1.5,0-2.3,1.1-2.3,2.4c0,1.5,1,2.4,2.3,2.4c0.6,0,1.1-0.1,1.5-0.3L94,100.7z"/>
		<path fill="#FFFFFF" d="M96.3,92.3c-0.6,0-1.1-0.5-1.1-1c0-0.6,0.4-1,1.1-1c0.6,0,1.1,0.4,1.1,1C97.4,91.8,97,92.3,96.3,92.3
			L96.3,92.3z M95.4,100.9v-7.5h1.9v7.5H95.4z"/>
		<path fill="#FFFFFF" d="M105.2,99.1c0,0.7,0,1.3,0.1,1.8h-1.7l-0.1-0.8h0c-0.4,0.6-1.2,1-2.2,1c-1.5,0-2.4-1.1-2.4-2.2
			c0-1.9,1.7-2.9,4.5-2.8v-0.1c0-0.5-0.2-1.3-1.5-1.3c-0.7,0-1.5,0.2-2,0.6l-0.4-1.2c0.6-0.3,1.5-0.7,2.7-0.7c2.4,0,3.1,1.5,3.1,3.2
			V99.1z M103.3,97.2c-1.3,0-2.6,0.3-2.6,1.4c0,0.7,0.5,1.1,1.1,1.1c0.8,0,1.3-0.5,1.5-1c0-0.1,0-0.3,0-0.4V97.2z"/>
		<path fill="#FFFFFF" d="M107.2,89.9h1.9v11h-1.9V89.9z"/>
		<path fill="#FFFFFF" d="M37.4,114.9l-0.9,3h-2l3.3-10.4h2.4l3.4,10.4h-2l-0.9-3H37.4z M40.4,113.5l-0.8-2.6
			c-0.2-0.6-0.4-1.3-0.5-1.9h0c-0.2,0.6-0.3,1.3-0.5,1.9l-0.8,2.6H40.4z"/>
		<path fill="#FFFFFF" d="M45.8,110.4l0.8,3.4c0.2,0.8,0.4,1.6,0.5,2.4h0c0.2-0.8,0.4-1.7,0.6-2.4l1-3.4h1.5l0.9,3.3
			c0.2,0.9,0.4,1.7,0.6,2.5h0c0.1-0.8,0.3-1.6,0.5-2.5l0.8-3.3h1.9l-2.4,7.5h-1.8l-0.9-3.1c-0.2-0.8-0.4-1.5-0.6-2.4h0
			c-0.2,0.9-0.4,1.7-0.6,2.4l-1,3.1h-1.8l-2.2-7.5H45.8z"/>
		<path fill="#FFFFFF" d="M62,116.1c0,0.7,0,1.3,0.1,1.8h-1.7l-0.1-0.8h0c-0.4,0.6-1.2,1-2.2,1c-1.5,0-2.4-1.1-2.4-2.2
			c0-1.9,1.7-2.9,4.5-2.8v-0.1c0-0.5-0.2-1.3-1.5-1.3c-0.7,0-1.5,0.2-2,0.6l-0.4-1.2c0.6-0.3,1.5-0.7,2.7-0.7c2.4,0,3.1,1.5,3.1,3.2
			V116.1z M60.2,114.2c-1.3,0-2.6,0.3-2.6,1.4c0,0.7,0.5,1.1,1.1,1.1c0.8,0,1.3-0.5,1.5-1c0-0.1,0-0.3,0-0.4V114.2z"/>
		<path fill="#FFFFFF" d="M64.1,112.8c0-1,0-1.8-0.1-2.4h1.6l0.1,1.4h0c0.4-1.1,1.3-1.6,2.1-1.6c0.2,0,0.3,0,0.4,0v1.8
			c-0.2,0-0.3,0-0.6,0c-0.9,0-1.5,0.6-1.7,1.4c0,0.2,0,0.4,0,0.6v3.9h-1.9V112.8z"/>
		<path fill="#FFFFFF" d="M70.8,114.7c0,1.4,1.1,1.9,2.3,1.9c0.9,0,1.5-0.1,2.1-0.3l0.3,1.3c-0.6,0.3-1.5,0.5-2.6,0.5
			c-2.4,0-3.9-1.5-3.9-3.8c0-2.1,1.3-4.1,3.7-4.1c2.4,0,3.2,2,3.2,3.7c0,0.4,0,0.6-0.1,0.8H70.8z M74.1,113.3c0-0.7-0.3-1.8-1.6-1.8
			c-1.2,0-1.7,1.1-1.7,1.8H74.1z"/>
		<path fill="#FFFFFF" d="M77.4,112.6c0-0.9,0-1.6-0.1-2.2H79l0.1,1.1h0c0.3-0.6,1.2-1.3,2.4-1.3c1.3,0,2.7,0.9,2.7,3.2v4.5h-1.9
			v-4.3c0-1.1-0.4-1.9-1.4-1.9c-0.8,0-1.3,0.5-1.5,1.1c-0.1,0.2-0.1,0.4-0.1,0.6v4.4h-1.9V112.6z"/>
		<path fill="#FFFFFF" d="M87.6,114.7c0,1.4,1.1,1.9,2.3,1.9c0.9,0,1.5-0.1,2.1-0.3l0.3,1.3c-0.6,0.3-1.5,0.5-2.6,0.5
			c-2.4,0-3.9-1.5-3.9-3.8c0-2.1,1.3-4.1,3.7-4.1c2.4,0,3.2,2,3.2,3.7c0,0.4,0,0.6-0.1,0.8H87.6z M90.9,113.3c0-0.7-0.3-1.8-1.6-1.8
			c-1.2,0-1.7,1.1-1.7,1.8H90.9z"/>
		<path fill="#FFFFFF" d="M94.2,116.1c0.4,0.3,1.2,0.6,1.9,0.6c0.8,0,1.2-0.4,1.2-0.9c0-0.5-0.3-0.8-1.2-1.1
			c-1.5-0.5-2.1-1.3-2.1-2.2c0-1.3,1.1-2.4,2.8-2.4c0.8,0,1.6,0.2,2,0.4l-0.4,1.3c-0.3-0.2-0.9-0.4-1.6-0.4c-0.7,0-1.1,0.3-1.1,0.8
			c0,0.5,0.4,0.7,1.3,1.1c1.4,0.5,2,1.2,2,2.3c0,1.4-1.1,2.4-3.1,2.4c-0.9,0-1.7-0.2-2.3-0.5L94.2,116.1z"/>
		<path fill="#FFFFFF" d="M100.6,116.1c0.4,0.3,1.2,0.6,1.9,0.6c0.8,0,1.2-0.4,1.2-0.9c0-0.5-0.3-0.8-1.2-1.1
			c-1.5-0.5-2.1-1.3-2.1-2.2c0-1.3,1.1-2.4,2.8-2.4c0.8,0,1.6,0.2,2,0.4l-0.4,1.3c-0.3-0.2-0.9-0.4-1.6-0.4c-0.7,0-1.1,0.3-1.1,0.8
			c0,0.5,0.4,0.7,1.3,1.1c1.4,0.5,2,1.2,2,2.3c0,1.4-1.1,2.4-3.1,2.4c-0.9,0-1.7-0.2-2.3-0.5L100.6,116.1z"/>
	</g>
	<g>
		<path fill="#FFFFFF" d="M161.2,81.8c0.6,0.4,1.5,0.7,2.5,0.7c1.2,0,1.9-0.6,1.9-1.4c0-0.8-0.5-1.3-1.8-1.7c-1.7-0.6-2.8-1.5-2.8-3
			c0-1.7,1.4-3,3.7-3c1.1,0,2,0.2,2.5,0.5l-0.4,1.5c-0.4-0.2-1.1-0.5-2.1-0.5c-1.2,0-1.7,0.6-1.7,1.3c0,0.8,0.6,1.2,2,1.7
			c1.8,0.7,2.7,1.6,2.7,3.1c0,1.7-1.3,3.1-3.9,3.1c-1.1,0-2.3-0.3-2.8-0.6L161.2,81.8z"/>
		<path fill="#FFFFFF" d="M171.3,74.4v1.9h1.8v1.4h-1.8v3.3c0,0.9,0.2,1.4,1,1.4c0.3,0,0.5,0,0.7-0.1l0,1.4
			c-0.3,0.1-0.8,0.2-1.4,0.2c-0.7,0-1.3-0.2-1.6-0.6c-0.4-0.4-0.6-1.1-0.6-2.1v-3.5h-1.1v-1.4h1.1V75L171.3,74.4z"/>
		<path fill="#FFFFFF" d="M174.5,78.8c0-1,0-1.8-0.1-2.4h1.6l0.1,1.4h0c0.4-1.1,1.3-1.6,2.1-1.6c0.2,0,0.3,0,0.4,0V78
			c-0.2,0-0.3,0-0.6,0c-0.9,0-1.5,0.6-1.7,1.4c0,0.2,0,0.4,0,0.6v3.9h-1.9V78.8z"/>
		<path fill="#FFFFFF" d="M183.2,84.1c-2.1,0-3.8-1.5-3.8-3.9c0-2.5,1.6-4,3.9-4c2.2,0,3.7,1.6,3.7,3.9
			C187,82.8,185.1,84.1,183.2,84.1L183.2,84.1z M183.2,82.7c1.1,0,1.8-1.1,1.8-2.6c0-1.2-0.5-2.5-1.8-2.5c-1.3,0-1.9,1.3-1.9,2.6
			C181.4,81.6,182.1,82.7,183.2,82.7L183.2,82.7z"/>
		<path fill="#FFFFFF" d="M188.6,78.6c0-0.9,0-1.6-0.1-2.2h1.7l0.1,1.1h0c0.3-0.6,1.2-1.3,2.4-1.3c1.3,0,2.7,0.9,2.7,3.2v4.5h-1.9
			v-4.3c0-1.1-0.4-1.9-1.4-1.9c-0.8,0-1.3,0.5-1.5,1.1c-0.1,0.2-0.1,0.4-0.1,0.6v4.4h-1.9V78.6z"/>
		<path fill="#FFFFFF" d="M204.3,82.8c0,1.6-0.3,2.7-1.1,3.4c-0.8,0.7-1.9,0.9-2.9,0.9c-1,0-2-0.2-2.6-0.6l0.4-1.4
			c0.5,0.3,1.3,0.6,2.2,0.6c1.2,0,2.2-0.6,2.2-2.3v-0.6h0c-0.4,0.7-1.2,1.1-2.2,1.1c-1.9,0-3.2-1.5-3.2-3.7c0-2.5,1.6-4,3.4-4
			c1.2,0,1.8,0.6,2.2,1.2h0l0.1-1h1.7c0,0.5-0.1,1.1-0.1,2.2V82.8z M202.4,79.4c0-0.2,0-0.4-0.1-0.5c-0.2-0.7-0.7-1.2-1.5-1.2
			c-1.1,0-1.9,0.9-1.9,2.5c0,1.3,0.6,2.3,1.8,2.3c0.7,0,1.3-0.5,1.5-1.2c0.1-0.2,0.1-0.4,0.1-0.7V79.4z"/>
		<path fill="#FFFFFF" d="M151.3,100.6c-0.4,0.2-1.4,0.5-2.7,0.5c-3.3,0-5.3-2.1-5.3-5.2c0-3.4,2.4-5.5,5.6-5.5
			c1.3,0,2.1,0.2,2.5,0.4l-0.4,1.5c-0.5-0.2-1.2-0.4-2-0.4c-2.1,0-3.7,1.3-3.7,3.8c0,2.3,1.3,3.7,3.6,3.7c0.8,0,1.6-0.2,2.1-0.4
			L151.3,100.6z"/>
		<path fill="#FFFFFF" d="M155.9,101.1c-2.1,0-3.8-1.5-3.8-3.9c0-2.5,1.6-4,3.9-4c2.2,0,3.7,1.6,3.7,3.9
			C159.8,99.8,157.8,101.1,155.9,101.1L155.9,101.1z M156,99.7c1.1,0,1.8-1.1,1.8-2.6c0-1.2-0.5-2.5-1.8-2.5c-1.3,0-1.9,1.3-1.9,2.6
			C154.1,98.6,154.8,99.7,156,99.7L156,99.7z"/>
		<path fill="#FFFFFF" d="M161.3,95.6c0-0.9,0-1.6-0.1-2.2h1.6l0.1,1.1h0c0.4-0.6,1-1.3,2.3-1.3c1,0,1.8,0.6,2.1,1.4h0
			c0.3-0.4,0.6-0.7,0.9-0.9c0.4-0.3,0.9-0.4,1.5-0.4c1.2,0,2.5,0.9,2.5,3.3v4.4h-1.9v-4.2c0-1.3-0.4-2-1.3-2c-0.7,0-1.1,0.5-1.3,1
			c-0.1,0.2-0.1,0.4-0.1,0.6v4.5H166v-4.4c0-1.1-0.4-1.8-1.3-1.8c-0.7,0-1.2,0.6-1.4,1.1c-0.1,0.2-0.1,0.4-0.1,0.6v4.5h-1.9V95.6z"
			/>
		<path fill="#FFFFFF" d="M174.5,95.6c0-0.9,0-1.6-0.1-2.2h1.6l0.1,1.1h0c0.4-0.6,1-1.3,2.3-1.3c1,0,1.8,0.6,2.1,1.4h0
			c0.3-0.4,0.6-0.7,0.9-0.9c0.4-0.3,0.9-0.4,1.5-0.4c1.2,0,2.5,0.9,2.5,3.3v4.4h-1.9v-4.2c0-1.3-0.4-2-1.3-2c-0.6,0-1.1,0.5-1.3,1
			c-0.1,0.2-0.1,0.4-0.1,0.6v4.5h-1.9v-4.4c0-1.1-0.4-1.8-1.3-1.8c-0.7,0-1.2,0.6-1.4,1.1c-0.1,0.2-0.1,0.4-0.1,0.6v4.5h-1.9V95.6z"
			/>
		<path fill="#FFFFFF" d="M188.9,97.7c0,1.4,1.1,1.9,2.3,1.9c0.9,0,1.5-0.1,2.1-0.3l0.3,1.3c-0.6,0.3-1.5,0.5-2.6,0.5
			c-2.4,0-3.9-1.5-3.9-3.8c0-2.1,1.3-4.1,3.7-4.1c2.4,0,3.2,2,3.2,3.7c0,0.4,0,0.6-0.1,0.8H188.9z M192.2,96.3
			c0-0.7-0.3-1.8-1.6-1.8c-1.2,0-1.7,1.1-1.7,1.8H192.2z"/>
		<path fill="#FFFFFF" d="M195.6,95.8c0-1,0-1.8-0.1-2.4h1.6l0.1,1.4h0c0.4-1.1,1.3-1.6,2.1-1.6c0.2,0,0.3,0,0.4,0V95
			c-0.2,0-0.3,0-0.6,0c-0.9,0-1.5,0.6-1.7,1.4c0,0.2,0,0.4,0,0.6v3.9h-1.9V95.8z"/>
		<path fill="#FFFFFF" d="M206.5,100.7c-0.4,0.2-1.2,0.4-2.1,0.4c-2.4,0-3.9-1.5-3.9-3.9c0-2.3,1.5-4,4.2-4c0.7,0,1.4,0.2,1.8,0.3
			l-0.3,1.4c-0.3-0.2-0.8-0.3-1.4-0.3c-1.5,0-2.3,1.1-2.3,2.4c0,1.5,1,2.4,2.3,2.4c0.7,0,1.1-0.1,1.5-0.3L206.5,100.7z"/>
		<path fill="#FFFFFF" d="M208.8,92.3c-0.6,0-1.1-0.5-1.1-1c0-0.6,0.4-1,1.1-1c0.7,0,1.1,0.4,1.1,1
			C209.9,91.8,209.5,92.3,208.8,92.3L208.8,92.3z M207.9,100.9v-7.5h1.9v7.5H207.9z"/>
		<path fill="#FFFFFF" d="M217.7,99.1c0,0.7,0,1.3,0.1,1.8h-1.7l-0.1-0.8h0c-0.4,0.6-1.2,1-2.2,1c-1.5,0-2.4-1.1-2.4-2.2
			c0-1.9,1.7-2.9,4.5-2.8v-0.1c0-0.5-0.2-1.3-1.5-1.3c-0.7,0-1.5,0.2-2,0.6l-0.4-1.2c0.6-0.3,1.5-0.7,2.7-0.7c2.4,0,3.1,1.5,3.1,3.2
			V99.1z M215.8,97.2c-1.3,0-2.6,0.3-2.6,1.4c0,0.7,0.5,1.1,1.1,1.1c0.8,0,1.3-0.5,1.5-1c0-0.1,0-0.3,0-0.4V97.2z"/>
		<path fill="#FFFFFF" d="M219.7,89.9h1.9v11h-1.9V89.9z"/>
		<path fill="#FFFFFF" d="M141.5,107.6c0.7-0.1,1.6-0.2,2.9-0.2c1.4,0,2.4,0.3,3.1,0.9c0.6,0.5,1,1.3,1,2.3c0,1-0.3,1.8-0.9,2.4
			c-0.8,0.8-1.9,1.1-3.3,1.1c-0.4,0-0.7,0-0.9-0.1v3.9h-1.9V107.6z M143.4,112.5c0.2,0.1,0.5,0.1,0.9,0.1c1.4,0,2.3-0.7,2.3-1.9
			c0-1.1-0.8-1.8-2.1-1.8c-0.5,0-0.9,0-1.1,0.1V112.5z"/>
		<path fill="#FFFFFF" d="M155.6,116.1c0,0.7,0,1.3,0.1,1.8H154l-0.1-0.8h0c-0.4,0.6-1.2,1-2.2,1c-1.5,0-2.4-1.1-2.4-2.2
			c0-1.9,1.7-2.9,4.5-2.8v-0.1c0-0.5-0.2-1.3-1.5-1.3c-0.7,0-1.5,0.2-2,0.6l-0.4-1.2c0.6-0.3,1.5-0.7,2.7-0.7c2.4,0,3.1,1.5,3.1,3.2
			V116.1z M153.7,114.2c-1.3,0-2.6,0.3-2.6,1.4c0,0.7,0.5,1.1,1.1,1.1c0.8,0,1.3-0.5,1.5-1c0-0.1,0-0.3,0-0.4V114.2z"/>
		<path fill="#FFFFFF" d="M157.6,112.8c0-1,0-1.8-0.1-2.4h1.6l0.1,1.4h0c0.4-1.1,1.3-1.6,2.1-1.6c0.2,0,0.3,0,0.4,0v1.8
			c-0.2,0-0.3,0-0.6,0c-0.9,0-1.5,0.6-1.7,1.4c0,0.2,0,0.4,0,0.6v3.9h-1.9V112.8z"/>
		<path fill="#FFFFFF" d="M165.7,108.4v1.9h1.8v1.4h-1.8v3.3c0,0.9,0.2,1.4,1,1.4c0.3,0,0.5,0,0.7-0.1l0,1.4
			c-0.3,0.1-0.8,0.2-1.4,0.2c-0.7,0-1.3-0.2-1.6-0.6c-0.4-0.4-0.6-1.1-0.6-2.1v-3.5h-1.1v-1.4h1.1V109L165.7,108.4z"/>
		<path fill="#FFFFFF" d="M168.9,112.6c0-0.9,0-1.6-0.1-2.2h1.7l0.1,1.1h0c0.3-0.6,1.2-1.3,2.4-1.3c1.3,0,2.7,0.9,2.7,3.2v4.5h-1.9
			v-4.3c0-1.1-0.4-1.9-1.4-1.9c-0.8,0-1.3,0.5-1.5,1.1c-0.1,0.2-0.1,0.4-0.1,0.6v4.4h-1.9V112.6z"/>
		<path fill="#FFFFFF" d="M179.1,114.7c0,1.4,1.1,1.9,2.3,1.9c0.9,0,1.5-0.1,2.1-0.3l0.3,1.3c-0.6,0.3-1.5,0.5-2.6,0.5
			c-2.4,0-3.9-1.5-3.9-3.8c0-2.1,1.3-4.1,3.7-4.1c2.4,0,3.2,2,3.2,3.7c0,0.4,0,0.6-0.1,0.8H179.1z M182.4,113.3
			c0-0.7-0.3-1.8-1.6-1.8c-1.2,0-1.7,1.1-1.7,1.8H182.4z"/>
		<path fill="#FFFFFF" d="M185.7,112.8c0-1,0-1.8-0.1-2.4h1.6l0.1,1.4h0c0.4-1.1,1.3-1.6,2.1-1.6c0.2,0,0.3,0,0.4,0v1.8
			c-0.2,0-0.3,0-0.6,0c-0.9,0-1.5,0.6-1.7,1.4c0,0.2,0,0.4,0,0.6v3.9h-1.9V112.8z"/>
		<path fill="#FFFFFF" d="M191.2,116.1c0.4,0.3,1.2,0.6,1.9,0.6c0.8,0,1.2-0.4,1.2-0.9c0-0.5-0.3-0.8-1.2-1.1
			c-1.5-0.5-2.1-1.3-2.1-2.2c0-1.3,1.1-2.4,2.8-2.4c0.8,0,1.6,0.2,2,0.4l-0.4,1.3c-0.3-0.2-0.9-0.4-1.6-0.4c-0.7,0-1.1,0.3-1.1,0.8
			c0,0.5,0.4,0.7,1.3,1.1c1.4,0.5,2,1.2,2,2.3c0,1.4-1.1,2.4-3.1,2.4c-0.9,0-1.7-0.2-2.3-0.5L191.2,116.1z"/>
		<path fill="#FFFFFF" d="M197.7,106.9h1.9v4.5h0c0.2-0.4,0.6-0.6,0.9-0.9c0.4-0.2,0.8-0.3,1.3-0.3c1.3,0,2.6,0.9,2.6,3.3v4.4h-1.9
			v-4.2c0-1.1-0.4-1.9-1.5-1.9c-0.7,0-1.3,0.5-1.5,1.1c-0.1,0.2-0.1,0.4-0.1,0.6v4.5h-1.9V106.9z"/>
		<path fill="#FFFFFF" d="M207.5,109.3c-0.6,0-1.1-0.5-1.1-1c0-0.6,0.4-1,1.1-1c0.7,0,1.1,0.4,1.1,1
			C208.6,108.8,208.2,109.3,207.5,109.3L207.5,109.3z M206.5,117.9v-7.5h1.9v7.5H206.5z"/>
		<path fill="#FFFFFF" d="M210.5,112.9c0-1,0-1.8-0.1-2.5h1.7l0.1,1.2h0c0.6-0.9,1.4-1.3,2.6-1.3c1.7,0,3.2,1.5,3.2,3.8
			c0,2.7-1.7,4-3.4,4c-0.9,0-1.7-0.4-2.1-1h0v3.9h-1.9V112.9z M212.4,114.7c0,0.2,0,0.4,0,0.5c0.2,0.8,0.9,1.3,1.7,1.3
			c1.2,0,1.9-1,1.9-2.5c0-1.3-0.7-2.4-1.9-2.4c-0.8,0-1.5,0.6-1.7,1.4c0,0.2-0.1,0.3-0.1,0.5V114.7z"/>
		<path fill="#FFFFFF" d="M219.5,116.1c0.4,0.3,1.2,0.6,1.9,0.6c0.8,0,1.2-0.4,1.2-0.9c0-0.5-0.3-0.8-1.2-1.1
			c-1.5-0.5-2.1-1.3-2.1-2.2c0-1.3,1.1-2.4,2.8-2.4c0.8,0,1.6,0.2,2,0.4l-0.4,1.3c-0.3-0.2-0.9-0.4-1.6-0.4c-0.7,0-1.1,0.3-1.1,0.8
			c0,0.5,0.4,0.7,1.3,1.1c1.4,0.5,2,1.2,2,2.3c0,1.4-1.1,2.4-3.1,2.4c-0.9,0-1.7-0.2-2.3-0.5L219.5,116.1z"/>
	</g>
	<g>
		<path fill="#FFFFFF" d="M90.7,178.3c0.6,0.4,1.5,0.7,2.5,0.7c1.2,0,1.9-0.6,1.9-1.4c0-0.8-0.5-1.3-1.8-1.7c-1.7-0.6-2.8-1.5-2.8-3
			c0-1.7,1.4-3,3.7-3c1.1,0,1.9,0.2,2.5,0.5l-0.4,1.5c-0.4-0.2-1.1-0.5-2.1-0.5c-1.2,0-1.7,0.6-1.7,1.3c0,0.8,0.6,1.2,2,1.7
			c1.8,0.7,2.7,1.6,2.7,3.1c0,1.7-1.3,3.1-3.9,3.1c-1.1,0-2.3-0.3-2.8-0.6L90.7,178.3z"/>
		<path fill="#FFFFFF" d="M100.8,170.9v1.9h1.8v1.4h-1.8v3.3c0,0.9,0.2,1.4,1,1.4c0.3,0,0.5,0,0.7-0.1l0,1.4
			c-0.3,0.1-0.8,0.2-1.4,0.2c-0.7,0-1.3-0.2-1.6-0.6c-0.4-0.4-0.6-1.1-0.6-2.1v-3.5h-1.1v-1.4h1.1v-1.4L100.8,170.9z"/>
		<path fill="#FFFFFF" d="M104.1,175.3c0-1,0-1.8-0.1-2.4h1.6l0.1,1.4h0c0.4-1.1,1.3-1.6,2.1-1.6c0.2,0,0.3,0,0.4,0v1.8
			c-0.2,0-0.3,0-0.6,0c-0.9,0-1.5,0.6-1.7,1.4c0,0.2,0,0.4,0,0.6v3.9h-1.9V175.3z"/>
		<path fill="#FFFFFF" d="M116.3,178.1c0,0.9,0,1.6,0.1,2.3h-1.7l-0.1-1.1h0c-0.3,0.5-1.1,1.3-2.4,1.3c-1.4,0-2.6-0.8-2.6-3.3v-4.4
			h1.9v4.1c0,1.3,0.4,2.1,1.4,2.1c0.8,0,1.3-0.5,1.5-1c0.1-0.2,0.1-0.4,0.1-0.6v-4.5h1.9V178.1z"/>
		<path fill="#FFFFFF" d="M123.9,180.2c-0.4,0.2-1.2,0.4-2.1,0.4c-2.4,0-3.9-1.5-3.9-3.9c0-2.3,1.5-4,4.2-4c0.7,0,1.4,0.2,1.8,0.3
			l-0.3,1.4c-0.3-0.2-0.8-0.3-1.4-0.3c-1.5,0-2.3,1.1-2.3,2.4c0,1.5,1,2.4,2.3,2.4c0.6,0,1.1-0.1,1.5-0.3L123.9,180.2z"/>
		<path fill="#FFFFFF" d="M127.7,170.9v1.9h1.8v1.4h-1.8v3.3c0,0.9,0.2,1.4,1,1.4c0.3,0,0.5,0,0.7-0.1l0,1.4
			c-0.3,0.1-0.8,0.2-1.4,0.2c-0.7,0-1.3-0.2-1.6-0.6c-0.4-0.4-0.6-1.1-0.6-2.1v-3.5h-1.1v-1.4h1.1v-1.4L127.7,170.9z"/>
		<path fill="#FFFFFF" d="M137.7,178.1c0,0.9,0,1.6,0.1,2.3h-1.7l-0.1-1.1h0c-0.3,0.5-1.1,1.3-2.4,1.3c-1.4,0-2.6-0.8-2.6-3.3v-4.4
			h1.9v4.1c0,1.3,0.4,2.1,1.4,2.1c0.8,0,1.3-0.5,1.5-1c0.1-0.2,0.1-0.4,0.1-0.6v-4.5h1.9V178.1z"/>
		<path fill="#FFFFFF" d="M139.8,175.3c0-1,0-1.8-0.1-2.4h1.6l0.1,1.4h0c0.4-1.1,1.3-1.6,2.1-1.6c0.2,0,0.3,0,0.4,0v1.8
			c-0.2,0-0.3,0-0.6,0c-0.9,0-1.5,0.6-1.7,1.4c0,0.2,0,0.4,0,0.6v3.9h-1.9V175.3z"/>
		<path fill="#FFFFFF" d="M146.5,177.2c0,1.4,1.1,1.9,2.3,1.9c0.9,0,1.5-0.1,2.1-0.3l0.3,1.3c-0.7,0.3-1.5,0.5-2.6,0.5
			c-2.4,0-3.9-1.5-3.9-3.8c0-2.1,1.3-4.1,3.7-4.1c2.4,0,3.2,2,3.2,3.7c0,0.4,0,0.6-0.1,0.8H146.5z M149.8,175.8
			c0-0.7-0.3-1.8-1.6-1.8c-1.2,0-1.7,1.1-1.7,1.8H149.8z"/>
		<path fill="#FFFFFF" d="M157.3,171.8c-0.6,0-1.1-0.5-1.1-1c0-0.6,0.4-1,1.1-1c0.7,0,1.1,0.4,1.1,1
			C158.4,171.3,157.9,171.8,157.3,171.8L157.3,171.8z M156.3,180.4v-7.5h1.9v7.5H156.3z"/>
		<path fill="#FFFFFF" d="M160.3,175.1c0-0.9,0-1.6-0.1-2.2h1.7l0.1,1.1h0c0.3-0.6,1.2-1.3,2.4-1.3c1.3,0,2.7,0.9,2.7,3.2v4.5h-1.9
			v-4.3c0-1.1-0.4-1.9-1.4-1.9c-0.8,0-1.3,0.5-1.5,1.1c-0.1,0.2-0.1,0.4-0.1,0.6v4.4h-1.9V175.1z"/>
		<path fill="#FFFFFF" d="M68.5,197.1c-0.4,0.2-1.4,0.5-2.7,0.5c-3.3,0-5.3-2.1-5.3-5.2c0-3.4,2.4-5.5,5.6-5.5
			c1.3,0,2.1,0.2,2.5,0.4l-0.4,1.5c-0.5-0.2-1.2-0.4-2-0.4c-2.1,0-3.7,1.3-3.7,3.8c0,2.3,1.3,3.7,3.6,3.7c0.8,0,1.6-0.2,2.1-0.4
			L68.5,197.1z"/>
		<path fill="#FFFFFF" d="M75.8,195.6c0,0.7,0,1.3,0.1,1.8h-1.7l-0.1-0.8h0c-0.4,0.6-1.2,1-2.2,1c-1.5,0-2.4-1.1-2.4-2.2
			c0-1.9,1.7-2.9,4.5-2.8v-0.1c0-0.5-0.2-1.3-1.5-1.3c-0.7,0-1.5,0.2-2,0.6l-0.4-1.2c0.6-0.3,1.5-0.7,2.7-0.7c2.4,0,3.1,1.5,3.1,3.2
			V195.6z M73.9,193.7c-1.3,0-2.6,0.3-2.6,1.4c0,0.7,0.5,1.1,1.1,1.1c0.8,0,1.3-0.5,1.5-1c0-0.1,0-0.3,0-0.4V193.7z"/>
		<path fill="#FFFFFF" d="M77.8,192.4c0-1,0-1.8-0.1-2.5h1.7l0.1,1.2h0c0.6-0.9,1.4-1.3,2.6-1.3c1.7,0,3.2,1.5,3.2,3.8
			c0,2.7-1.7,4-3.4,4c-0.9,0-1.7-0.4-2.1-1h0v3.9h-1.9V192.4z M79.7,194.2c0,0.2,0,0.4,0,0.5c0.2,0.8,0.9,1.3,1.7,1.3
			c1.2,0,1.9-1,1.9-2.5c0-1.3-0.6-2.4-1.9-2.4c-0.8,0-1.5,0.6-1.7,1.4c0,0.2-0.1,0.3-0.1,0.5V194.2z"/>
		<path fill="#FFFFFF" d="M87.8,188.8c-0.6,0-1.1-0.5-1.1-1c0-0.6,0.4-1,1.1-1c0.6,0,1.1,0.4,1.1,1
			C88.9,188.3,88.5,188.8,87.8,188.8L87.8,188.8z M86.9,197.4v-7.5h1.9v7.5H86.9z"/>
		<path fill="#FFFFFF" d="M93,187.9v1.9h1.8v1.4H93v3.3c0,0.9,0.2,1.4,1,1.4c0.3,0,0.5,0,0.7-0.1l0,1.4c-0.3,0.1-0.8,0.2-1.4,0.2
			c-0.7,0-1.3-0.2-1.6-0.6c-0.4-0.4-0.6-1.1-0.6-2.1v-3.5h-1.1v-1.4h1.1v-1.4L93,187.9z"/>
		<path fill="#FFFFFF" d="M102.1,195.6c0,0.7,0,1.3,0.1,1.8h-1.7l-0.1-0.8h0c-0.4,0.6-1.2,1-2.2,1c-1.5,0-2.4-1.1-2.4-2.2
			c0-1.9,1.7-2.9,4.5-2.8v-0.1c0-0.5-0.2-1.3-1.5-1.3c-0.7,0-1.5,0.2-2,0.6l-0.4-1.2c0.6-0.3,1.5-0.7,2.7-0.7c2.4,0,3.1,1.5,3.1,3.2
			V195.6z M100.2,193.7c-1.3,0-2.6,0.3-2.6,1.4c0,0.7,0.5,1.1,1.1,1.1c0.8,0,1.3-0.5,1.5-1c0-0.1,0-0.3,0-0.4V193.7z"/>
		<path fill="#FFFFFF" d="M104.1,186.4h1.9v11h-1.9V186.4z"/>
		<path fill="#FFFFFF" d="M115.6,197.6c-3,0-4.8-2.3-4.8-5.3c0-3.2,2-5.5,5-5.5c3,0,4.8,2.3,4.8,5.3
			C120.6,195.6,118.5,197.6,115.6,197.6L115.6,197.6z M115.7,196c1.8,0,2.9-1.7,2.9-3.9c0-2-1-3.8-2.9-3.8c-1.9,0-2.9,1.8-2.9,3.9
			S113.9,196,115.7,196L115.7,196z"/>
		<path fill="#FFFFFF" d="M122.2,192.3c0-1,0-1.8-0.1-2.4h1.6l0.1,1.4h0c0.4-1.1,1.3-1.6,2.1-1.6c0.2,0,0.3,0,0.4,0v1.8
			c-0.2,0-0.3,0-0.6,0c-0.9,0-1.5,0.6-1.7,1.4c0,0.2,0,0.4,0,0.6v3.9h-1.9V192.3z"/>
		<path fill="#FFFFFF" d="M134.4,196.3c0,1.6-0.3,2.7-1.1,3.4c-0.8,0.7-1.9,0.9-2.9,0.9c-1,0-2-0.2-2.6-0.6l0.4-1.4
			c0.5,0.3,1.3,0.6,2.2,0.6c1.2,0,2.2-0.7,2.2-2.3v-0.7h0c-0.4,0.7-1.2,1.1-2.2,1.1c-1.9,0-3.2-1.5-3.2-3.7c0-2.5,1.6-4,3.4-4
			c1.2,0,1.8,0.6,2.2,1.2h0l0.1-1h1.7c0,0.5-0.1,1.1-0.1,2.2V196.3z M132.5,192.9c0-0.2,0-0.4-0.1-0.5c-0.2-0.7-0.7-1.2-1.5-1.2
			c-1.1,0-1.9,0.9-1.9,2.5c0,1.3,0.7,2.3,1.8,2.3c0.7,0,1.3-0.5,1.5-1.2c0.1-0.2,0.1-0.4,0.1-0.7V192.9z"/>
		<path fill="#FFFFFF" d="M142.3,195.6c0,0.7,0,1.3,0.1,1.8h-1.7l-0.1-0.8h0c-0.4,0.6-1.2,1-2.2,1c-1.5,0-2.4-1.1-2.4-2.2
			c0-1.9,1.7-2.9,4.5-2.8v-0.1c0-0.5-0.2-1.3-1.5-1.3c-0.7,0-1.5,0.2-2,0.6l-0.4-1.2c0.6-0.3,1.5-0.7,2.7-0.7c2.4,0,3.1,1.5,3.1,3.2
			V195.6z M140.4,193.7c-1.3,0-2.6,0.3-2.6,1.4c0,0.7,0.5,1.1,1.1,1.1c0.8,0,1.3-0.5,1.5-1c0-0.1,0-0.3,0-0.4V193.7z"/>
		<path fill="#FFFFFF" d="M144.3,192.1c0-0.9,0-1.6-0.1-2.2h1.7l0.1,1.1h0c0.3-0.6,1.2-1.3,2.4-1.3c1.3,0,2.7,0.9,2.7,3.2v4.5h-1.9
			v-4.3c0-1.1-0.4-1.9-1.4-1.9c-0.8,0-1.3,0.5-1.5,1.1c-0.1,0.2-0.1,0.4-0.1,0.6v4.4h-1.9V192.1z"/>
		<path fill="#FFFFFF" d="M154.1,188.8c-0.6,0-1.1-0.5-1.1-1c0-0.6,0.4-1,1.1-1c0.6,0,1.1,0.4,1.1,1
			C155.2,188.3,154.8,188.8,154.1,188.8L154.1,188.8z M153.1,197.4v-7.5h1.9v7.5H153.1z"/>
		<path fill="#FFFFFF" d="M156.4,196.3l2.8-3.6c0.4-0.5,0.7-0.8,1.1-1.3v0h-3.7v-1.5h6v1.2l-2.8,3.5c-0.4,0.4-0.7,0.9-1.1,1.3v0h4
			v1.5h-6.3V196.3z"/>
		<path fill="#FFFFFF" d="M169.9,195.6c0,0.7,0,1.3,0.1,1.8h-1.7l-0.1-0.8h0c-0.4,0.6-1.2,1-2.2,1c-1.5,0-2.4-1.1-2.4-2.2
			c0-1.9,1.7-2.9,4.5-2.8v-0.1c0-0.5-0.2-1.3-1.5-1.3c-0.7,0-1.5,0.2-2,0.6l-0.4-1.2c0.6-0.3,1.5-0.7,2.7-0.7c2.4,0,3.1,1.5,3.1,3.2
			V195.6z M168.1,193.7c-1.3,0-2.6,0.3-2.6,1.4c0,0.7,0.5,1.1,1.1,1.1c0.8,0,1.3-0.5,1.5-1c0-0.1,0-0.3,0-0.4V193.7z"/>
		<path fill="#FFFFFF" d="M174,187.9v1.9h1.8v1.4H174v3.3c0,0.9,0.2,1.4,1,1.4c0.3,0,0.5,0,0.7-0.1l0,1.4c-0.3,0.1-0.8,0.2-1.4,0.2
			c-0.7,0-1.3-0.2-1.6-0.6c-0.4-0.4-0.6-1.1-0.6-2.1v-3.5h-1.1v-1.4h1.1v-1.4L174,187.9z"/>
		<path fill="#FFFFFF" d="M178.2,188.8c-0.6,0-1.1-0.5-1.1-1c0-0.6,0.4-1,1.1-1c0.6,0,1.1,0.4,1.1,1
			C179.3,188.3,178.9,188.8,178.2,188.8L178.2,188.8z M177.3,197.4v-7.5h1.9v7.5H177.3z"/>
		<path fill="#FFFFFF" d="M184.5,197.6c-2.1,0-3.8-1.5-3.8-3.9c0-2.5,1.6-4,3.9-4c2.2,0,3.7,1.6,3.7,3.9
			C188.4,196.3,186.4,197.6,184.5,197.6L184.5,197.6z M184.6,196.2c1.1,0,1.8-1.1,1.8-2.6c0-1.2-0.5-2.5-1.8-2.5
			c-1.3,0-1.9,1.3-1.9,2.6C182.7,195.1,183.4,196.2,184.6,196.2L184.6,196.2z"/>
		<path fill="#FFFFFF" d="M190,192.1c0-0.9,0-1.6-0.1-2.2h1.7l0.1,1.1h0c0.3-0.6,1.2-1.3,2.4-1.3c1.3,0,2.7,0.9,2.7,3.2v4.5h-1.9
			v-4.3c0-1.1-0.4-1.9-1.4-1.9c-0.8,0-1.3,0.5-1.5,1.1c-0.1,0.2-0.1,0.4-0.1,0.6v4.4H190V192.1z"/>
	</g>
</g>
</svg>
