<?xml version="1.0" encoding="UTF-8" standalone="no"?>
<svg width="104px" height="74px" viewBox="0 0 104 74" version="1.1" xmlns="http://www.w3.org/2000/svg" xmlns:xlink="http://www.w3.org/1999/xlink" xmlns:sketch="http://www.bohemiancoding.com/sketch/ns">
    <!-- Generator: Sketch 3.3.1 (12002) - http://www.bohemiancoding.com/sketch -->
    <title>CET Energy Logo</title>
    <desc>Created with Sketch.</desc>
    <defs></defs>
    <g id="Page-1" stroke="none" stroke-width="1" fill="none" fill-rule="evenodd" sketch:type="MSPage">
        <g id="About---Team-&amp;-Leadership" sketch:type="MSArtboardGroup" transform="translate(-141.000000, -42.000000)">
            <g id="Header-Copy" sketch:type="MSLayerGroup" transform="translate(0.000000, -3.000000)">
                <g id="CET-Energy-Logo" transform="translate(141.000000, 45.000000)" sketch:type="MSShapeGroup">
                    <path d="M50.0794757,46.3812482 L55.8539484,46 C55.8539484,46 56.3115135,51.2493105 55.6068632,52.6694598 C54.8999249,54.0872264 49.2695853,50.7489223 50.0794757,46.3812482" id="Fill-1" fill="#AA2932"></path>
                    <path d="M35,52 C35,52 19.7426929,44.2807916 22.2859703,25.57629 C27.9358645,23.4626698 32.2068733,27.4893814 30.9434844,32.3481724 C29.6800955,37.2069635 30.8444875,44.6841543 35,52" id="Fill-2" fill="#AA2932"></path>
                    <path d="M22,28.9586568 C22.0023177,28.9586568 22.6535787,24.4875667 25.92379,27.2032896 C29.1916837,29.9190125 34.7494206,35.9891855 38.8354465,45.8917213 C44.395501,57.39334 54.2014997,60.2698772 56,53.0807993 C54.3637355,53.8803407 51.659032,47.3254599 45.8648943,36.7388971 C40.471711,26.8839261 22,2.44242004 22,28.9586568" id="Fill-3" fill="#D7262B"></path>
                    <path d="M33.1029712,20 C33.1029712,20 27.1845004,11.4391665 29.5641353,8.43292591 C36.1160492,6.72363599 38.5611399,10.5449658 37.893913,11.7652022 C37.2266862,12.9854386 33.6413979,17.648228 33.1029712,20" id="Fill-4" fill="#AA2932"></path>
                    <path d="M66.5301546,39.4239687 C66.5301546,39.4239687 69.1985257,39.2793261 71.278322,33 C72.6656771,38.3127461 74.3349547,43.898706 71.278322,46.4907934 C68.5407067,48.8119629 64.5542245,42.6267693 66.5301546,39.4239687" id="Fill-5" fill="#AA2932"></path>
                    <path d="M29,10.3121015 C29,10.3121015 42.2601007,9.37281872 51.5942911,31.7948403 C60.4524084,56.3145935 67.7288803,55.6280225 72,44.9649266 C69.9445377,46.21954 65.9892958,41.2033228 61.0864204,28.6571886 C56.1812887,16.1155272 43.6522195,1.53204395 35.2047434,4.35436505 C31.9782768,5.92207272 29.8167699,8.58784668 29,10.3121015" id="Fill-6" fill="#D7262B"></path>
                    <path d="M49.9192555,7.55039784 C49.9192555,7.55039784 56.6321769,7.64032885 60,9 L53.3597982,0.74990087 C53.3597982,0.74990087 44.0267013,-0.937376087 45.083407,0.74990087 C46.0696656,2.31941103 47.7308523,6.18858548 49.9192555,7.55039784" id="Fill-7" fill="#AA2932"></path>
                    <path d="M75.1412342,21.5544787 C75.1412342,21.5521593 76.43509,17.5280285 71,8 C82.0268754,19.1863879 78.465414,33.5596091 78.4027359,33.9863757 C78.3400578,34.4131423 72.8736286,24.6949243 75.1412342,21.5544787" id="Fill-8" fill="#AA2932"></path>
                    <path d="M78.7552928,24.6958753 C76.7664963,20.3533124 71.2420619,9.75451487 68.9839493,6.25608365 C66.4058799,2.26313388 59.9376878,-0.269261112 46,0.0228498447 C46,0.0228498447 55.3915386,1.29479755 64.2605578,17.2159947 C72.1881213,33.139492 75.9585478,47.2620218 79.3698861,35.8673944 C80.0650441,34.1124285 80.3435677,28.7555276 79.3698861,26.126529 C79.25019,25.7999167 79.03842,25.3099983 78.7552928,24.6958753" id="Fill-9" fill="#D7262B"></path>
                    <path d="M33.6168587,72.504028 L34.9768332,65.4170494 C35.017129,65.2457925 35.0372765,65.0493537 35.0372765,64.8277271 C35.0372765,64.4852132 34.9717969,64.1829997 34.8408358,63.9210773 L43.7108921,63.9210773 L43.635338,65.8250417 C43.4036375,65.7343763 43.1442375,65.6714152 42.8571303,65.6361564 C42.5700232,65.6008976 42.2552174,65.5832685 41.9127035,65.5832685 L38.7696512,65.5832685 L38.3012155,68.0312227 L41.3838245,68.0312227 C41.7061905,68.0312227 41.9681089,68.0186305 42.1695876,67.9934456 C42.3710664,67.9682608 42.6027634,67.9052996 42.8646857,67.8045603 L42.4566934,69.9351871 C42.3257322,69.8243738 42.1695885,69.7513389 41.9882577,69.7160801 C41.8069268,69.6808213 41.5953774,69.6631922 41.3536029,69.6631922 L37.9838881,69.6631922 L37.4701199,72.3378089 L41.2024946,72.3378089 C41.3838254,72.3378089 41.5525613,72.3201797 41.7087074,72.284921 C41.8648534,72.2496622 42.1998067,72.1514428 42.7135775,71.9902598 L41.9882577,74 L32.9066497,74 C33.0376109,73.8287431 33.1333118,73.6877101 33.1937555,73.5768968 C33.4053081,73.2142351 33.5463411,72.8566157 33.6168587,72.504028 L33.6168587,72.504028 Z M43.7411138,72.504028 L45.1010884,65.4170494 C45.1413841,65.2457925 45.1615317,65.0493537 45.1615317,64.8277271 C45.1615317,64.4852132 45.0960521,64.1829997 44.9650909,63.9210773 L50.4352109,63.9210773 L52.7773893,71.9600381 L54.0315881,65.4170494 C54.0718838,65.2457925 54.0920314,65.0493537 54.0920314,64.8277271 C54.0920314,64.4852132 54.0265518,64.1829997 53.8955906,63.9210773 L56.4039881,63.9210773 C56.2125834,64.1225561 56.0614766,64.3466978 55.9506633,64.5935092 C55.83985,64.8403206 55.7542228,65.1148313 55.6937792,65.4170494 L54.0466989,74 L49.1659013,74 L46.6877254,65.8099309 L45.4033049,72.504028 C45.3630092,72.6752849 45.3428616,72.8717237 45.3428616,73.0933503 C45.3428616,73.4358641 45.4083412,73.7380777 45.5393024,74 L43.0309049,74 C43.161866,73.848891 43.257567,73.7179318 43.3180106,73.6071185 C43.5295633,73.2646046 43.6705962,72.8969115 43.7411138,72.504028 L43.7411138,72.504028 Z M56.7817589,72.504028 L58.1417334,65.4170494 C58.1820292,65.2457925 58.2021767,65.0493537 58.2021767,64.8277271 C58.2021767,64.4852132 58.1366971,64.1829997 58.005736,63.9210773 L66.8757923,63.9210773 L66.8002382,65.8250417 C66.5685377,65.7343763 66.3091377,65.6714152 66.0220305,65.6361564 C65.7349234,65.6008976 65.4201176,65.5832685 65.0776037,65.5832685 L61.9345514,65.5832685 L61.4661157,68.0312227 L64.5487247,68.0312227 C64.8710907,68.0312227 65.1330091,68.0186305 65.3344878,67.9934456 C65.5359666,67.9682608 65.7676636,67.9052996 66.0295859,67.8045603 L65.6215936,69.9351871 C65.4906324,69.8243738 65.3344887,69.7513389 65.1531579,69.7160801 C64.971827,69.6808213 64.7602776,69.6631922 64.5185031,69.6631922 L61.1487883,69.6631922 L60.6350201,72.3378089 L64.3673948,72.3378089 C64.5487256,72.3378089 64.7174615,72.3201797 64.8736076,72.284921 C65.0297536,72.2496622 65.3647069,72.1514428 65.8784777,71.9902598 L65.1531579,74 L56.0715499,74 C56.2025111,73.8287431 56.298212,73.6877101 56.3586557,73.5768968 C56.5702083,73.2142351 56.7112413,72.8566157 56.7817589,72.504028 L56.7817589,72.504028 Z M72.4667989,69.7085247 L71.2730435,69.7085247 L70.7290536,72.504028 C70.6887579,72.6752849 70.6686103,72.8717237 70.6686103,73.0933503 C70.6686103,73.4358641 70.7340899,73.7380777 70.8650511,74 L66.1958051,74 C66.367062,73.8085952 66.5156503,73.5794166 66.6415745,73.3124573 C66.7674987,73.045498 66.8556443,72.7760242 66.906014,72.504028 L68.2659886,65.4170494 C68.3062843,65.2457925 68.3264319,65.0493537 68.3264319,64.8277271 C68.3264319,64.4852132 68.2609523,64.1829997 68.1299911,63.9210773 L76.425836,63.9210773 C77.1511594,63.9210773 77.6951438,64.0167783 78.0578055,64.2081831 C78.5212065,64.4499576 78.7529036,64.8629827 78.7529036,65.447271 C78.7529036,65.6386758 78.732756,65.8300777 78.6924603,66.0214825 L78.2844679,68.182331 C78.1837286,68.6961017 78.0149927,69.081424 77.7782552,69.3383094 C77.5415177,69.5951948 77.1914536,69.7236355 76.7280526,69.7236355 L76.516501,69.7085247 L77.3173749,72.6249146 C77.45841,73.1185375 77.6296643,73.5768947 77.8311431,74 L73.4036703,74 L72.4667989,69.7085247 Z M71.5903709,68.0463335 L73.7361085,68.0463335 C74.0786223,68.0463335 74.3052825,67.9909277 74.4160958,67.8801144 C74.5269091,67.7693011 74.6175732,67.5325672 74.6880907,67.1699055 L74.8089773,66.5201399 C74.859347,66.2884393 74.8845315,66.1222219 74.8845315,66.0214825 C74.8845315,65.8602995 74.8266072,65.7469695 74.710757,65.6814889 C74.5949067,65.6160083 74.3909125,65.5832685 74.0987684,65.5832685 L72.0588065,65.5832685 L71.5903709,68.0463335 Z M79.0400093,71.8995948 L80.1733215,66.0063717 C80.3244305,65.2105307 80.6971606,64.6463988 81.2915228,64.3139589 C81.7649978,64.0520365 82.4147569,63.9210773 83.2408197,63.9210773 L90.5091282,63.9210773 L90.4637957,65.8854851 C90.2522431,65.7545239 90.0281014,65.6714152 89.7913639,65.6361564 C89.5546264,65.6008976 89.2549313,65.5832685 88.8922696,65.5832685 L85.0692299,65.5832685 C84.6461246,65.5832685 84.3565033,65.6714141 84.2003573,65.847708 C84.0442113,66.0240019 83.9258443,66.3287339 83.8452528,66.7619131 L82.9990464,71.1591642 C82.9486767,71.4110126 82.9234923,71.6074514 82.9234923,71.7484865 C82.9234923,71.9600392 82.983935,72.111146 83.1048222,72.2018114 C83.2257095,72.2924768 83.4473327,72.3378089 83.7696987,72.3378089 L84.8576783,72.3378089 C85.2001922,72.3378089 85.441963,72.2521817 85.5829981,72.0809248 C85.6837375,71.9600375 85.7693646,71.7081929 85.8398822,71.3253833 L86.1723204,69.5876381 L85.2203382,69.5876381 C84.7670111,69.5876381 84.348949,69.6631914 83.9661395,69.8143005 L84.3136885,67.9858902 L90.6904582,67.9858902 C90.5192013,68.177295 90.3706129,68.4064736 90.2446887,68.6734329 C90.1187645,68.9403922 90.0306189,69.209866 89.9802492,69.4818623 L89.4060377,72.504028 C89.365742,72.6954328 89.3455944,72.9019453 89.3455944,73.1235719 C89.3455944,73.4459379 89.411074,73.7380777 89.5420352,74 L86.2025421,74 C86.2025421,73.8791128 86.207579,73.6977846 86.2176529,73.4560102 C86.2277269,73.2142357 86.2327637,73.0278707 86.2327637,72.8969095 C86.1018026,73.3804584 85.8449211,73.6977827 85.4621115,73.8488917 C85.2102631,73.9496311 84.7972379,74 84.2230235,74 L81.3066336,74 C80.5611624,74 80.0121411,73.9093359 79.6595533,73.7280051 C79.2062262,73.4963046 78.979566,73.0782425 78.979566,72.4738063 C78.979566,72.2824015 78.9997136,72.0909996 79.0400093,71.8995948 L79.0400093,71.8995948 Z M97.671661,68.0312227 L99.8476203,65.3566061 C99.9987293,65.1752752 100.122133,64.9939471 100.217836,64.8126162 C100.313538,64.6312854 100.381536,64.4398835 100.421832,64.2384047 L100.467164,63.9210773 L103.187113,63.9210773 C102.945339,64.0621124 102.703568,64.268625 102.461794,64.5406213 C102.35098,64.6615085 102.149505,64.9083163 101.85736,65.2810519 L97.9134342,70.1618495 L97.4601094,72.504028 C97.4198136,72.6752849 97.3996661,72.8717237 97.3996661,73.0933503 C97.3996661,73.4358641 97.4651457,73.7380777 97.5961068,74 L92.9570825,74 C93.1283394,73.8085952 93.2769277,73.5794166 93.4028519,73.3124573 C93.5287761,73.045498 93.6169217,72.7760242 93.6672914,72.504028 L94.1206163,70.1618495 L92.0806544,65.5228252 C91.9496932,65.1903853 91.8288078,64.9133562 91.7179945,64.6917296 C91.5769594,64.4096594 91.4258526,64.1527779 91.2646697,63.9210773 L96.3267972,63.9210773 C96.3066494,64.0117428 96.2965756,64.1376651 96.2965756,64.2988481 C96.2965756,64.4902528 96.3192416,64.671581 96.3645743,64.8428379 C96.409907,65.0140948 96.4779051,65.2155705 96.5685705,65.447271 L97.671661,68.0312227 Z" id="ENERGY" fill="#0A0B09"></path>
                    <path d="M0.1635338,71.1138317 L0.979518543,66.8072456 C1.15077546,65.9207392 1.48824725,65.230685 1.99194406,64.7370621 C2.54601054,64.1930695 3.25621238,63.9210773 4.12257089,63.9210773 L10.1215698,63.9210773 L10.0913482,66.0063717 C9.85964764,65.8250408 9.60528457,65.7091923 9.32825133,65.6588226 C9.05121809,65.6084529 8.70115406,65.5832685 8.27804874,65.5832685 L6.17764357,65.5832685 C5.67394677,65.5832685 5.34403031,65.6613403 5.1878843,65.8174863 C5.03173829,65.9736323 4.90329753,66.3236964 4.80255817,66.8676889 L3.9714626,71.1289426 C3.94124079,71.3102734 3.92613011,71.4664171 3.92613011,71.5973783 C3.92613011,71.8995963 4.01175729,72.0985536 4.1830142,72.194256 C4.35427111,72.2899584 4.65144777,72.3378089 5.07455309,72.3378089 L7.06918246,72.3378089 C7.43184416,72.3378089 7.7718344,72.3151428 8.08916339,72.2698101 C8.40649237,72.2244774 8.72633505,72.1413687 9.048701,72.0204815 L8.36871371,74 L2.18838483,74 C1.46306143,74 0.929150827,73.8237088 0.586637,73.471121 C0.244123173,73.1185332 0.0728688286,72.6198809 0.0728688286,71.975149 C0.0728688286,71.7031527 0.103090183,71.4160498 0.1635338,71.1138317 L0.1635338,71.1138317 Z M10.4842297,72.504028 L11.8442043,65.4170494 C11.8845,65.2457925 11.9046476,65.0493537 11.9046476,64.8277271 C11.9046476,64.4852132 11.839168,64.1829997 11.7082068,63.9210773 L20.5782632,63.9210773 L20.5027091,65.8250417 C20.2710085,65.7343763 20.0116086,65.6714152 19.7245014,65.6361564 C19.4373942,65.6008976 19.1225884,65.5832685 18.7800746,65.5832685 L15.6370223,65.5832685 L15.1685866,68.0312227 L18.2511956,68.0312227 C18.5735616,68.0312227 18.83548,68.0186305 19.0369587,67.9934456 C19.2384374,67.9682608 19.4701345,67.9052996 19.7320568,67.8045603 L19.3240644,69.9351871 C19.1931033,69.8243738 19.0369596,69.7513389 18.8556287,69.7160801 C18.6742979,69.6808213 18.4627484,69.6631922 18.2209739,69.6631922 L14.8512592,69.6631922 L14.337491,72.3378089 L18.0698657,72.3378089 C18.2511965,72.3378089 18.4199324,72.3201797 18.5760784,72.284921 C18.7322244,72.2496622 19.0671778,72.1514428 19.5809485,71.9902598 L18.8556287,74 L9.77402077,74 C9.90498194,73.8287431 10.0006829,73.6877101 10.0611265,73.5768968 C10.2726792,73.2142351 10.4137122,72.8566157 10.4842297,72.504028 L10.4842297,72.504028 Z M22.5880034,72.504028 L23.9177563,65.5832685 L22.1497894,65.5832685 C21.8475713,65.5832685 21.5957267,65.6008976 21.3942479,65.6361564 C21.1927692,65.6714152 20.9761828,65.7545239 20.7444823,65.8854851 L21.4244696,63.9210773 L30.8687375,63.9210773 L30.7931833,65.8854851 C30.6219264,65.7645978 30.4431167,65.6840075 30.2567489,65.6437118 C30.0703811,65.6034161 29.8210549,65.5832685 29.5087629,65.5832685 L27.7256851,65.5832685 L26.3959322,72.504028 C26.3556365,72.6752849 26.3354889,72.8717237 26.3354889,73.0933503 C26.3354889,73.4358641 26.4009685,73.7380777 26.5319297,74 L21.8777945,74 C21.9986817,73.8690388 22.0893458,73.7481534 22.1497894,73.6373401 C22.361342,73.2948263 22.5074119,72.9170594 22.5880034,72.504028 L22.5880034,72.504028 Z" id="CET" fill="#D7262B"></path>
                </g>
            </g>
        </g>
    </g>
</svg>