<?xml version="1.0" encoding="utf-8"?>
<!-- Generator: Adobe Illustrator 19.0.0, SVG Export Plug-In . SVG Version: 6.00 Build 0)  -->
<svg version="1.2" baseProfile="tiny" id="Layer_1" xmlns="http://www.w3.org/2000/svg" xmlns:xlink="http://www.w3.org/1999/xlink"
	 x="0px" y="0px" viewBox="9 51.5 201.8 54.7" xml:space="preserve">
<g id="XMLID_164_">
	<path id="XMLID_183_" fill="#EC2727" d="M12.3,81.6c1,2.8,2.6,5.2,4.6,7.3l0.5-4.4c0-0.5,0.4-0.9,1-0.9h3c0.5,0,1,0.3,1,0.9
		l0.5,4.7c0,0.5-0.4,0.9-1,0.9h-0.3l-0.3,2.2c1.6,0.9,3.4,1.7,5.2,2.1L26,90.1h-0.3c-0.5,0-1-0.3-1-0.9l0.5-4.7c0-0.5,0.4-0.9,1-0.9
		h3c0.5,0,1,0.3,1,0.9l0.5,4.7c0,0.5-0.4,0.9-1,0.9h-0.3l-0.6,4.8c0.9,0.1,1.8,0.2,2.7,0.2c1,0,1.9-0.1,2.9-0.2l-0.6-4.8h-0.3
		c-0.5,0-1-0.3-1-0.9l0.5-4.7c0-0.5,0.4-0.9,1-0.9h3c0.5,0,1,0.3,1,0.9l0.5,4.7c0,0.5-0.4,0.9-1,0.9h-0.3l-0.5,4.3
		c1.8-0.5,3.5-1.2,5-2.1l-0.3-2.2h-0.3c-0.5,0-1-0.3-1-0.9l0.5-4.7c0-0.5,0.4-0.9,1-0.9h3c0.5,0,1,0.3,1,0.9l0.5,4.4
		c2-2.1,3.6-4.5,4.6-7.3c0.8-2.2,1.3-4.6,1.3-7.1c0-5.7-2.3-10.8-6-14.6c-3.7-3.7-8.9-6-14.6-6s-10.8,2.3-14.6,6
		c-3.7,3.7-6,8.9-6,14.6C11,77,11.5,79.4,12.3,81.6z M45,81.3c0,0.9-0.7,1.6-1.6,1.6s-1.6-0.7-1.6-1.6s0.7-1.6,1.6-1.6
		S45,80.4,45,81.3z M39.5,60.4c0.9,0,1.6,0.7,1.6,1.6s-0.7,1.6-1.6,1.6s-1.6-0.7-1.6-1.6S38.6,60.4,39.5,60.4z M37.1,65.1
		c0-0.5,0.4-1,1-1h3c0.5,0,1,0.5,1,1l0.5,4.9c0,0.5-0.4,1-1,1h-0.3l-0.7,6.3c0,0.3-0.3,0.6-0.6,0.6h-0.8c-0.3,0-0.6-0.3-0.6-0.6
		L37.8,71h-0.3c-0.5,0-1-0.5-1-1L37.1,65.1z M37.3,81.3c0,0.9-0.7,1.6-1.6,1.6s-1.6-0.7-1.6-1.6s0.7-1.6,1.6-1.6
		S37.3,80.4,37.3,81.3z M31.6,60.4c0.9,0,1.6,0.7,1.6,1.6s-0.7,1.6-1.6,1.6S30,62.9,30,62S30.7,60.4,31.6,60.4z M29.1,65.1
		c0-0.5,0.4-1,1-1h3c0.5,0,1,0.5,1,1l0.5,4.9c0,0.5-0.4,1-1,1h-0.3l-0.7,6.3c0,0.3-0.3,0.6-0.6,0.6h-0.8c-0.3,0-0.6-0.3-0.6-0.6
		L29.9,71h-0.3c-0.5,0-1-0.5-1-1L29.1,65.1z M29.4,81.3c0,0.9-0.7,1.6-1.6,1.6s-1.6-0.7-1.6-1.6s0.7-1.6,1.6-1.6
		S29.4,80.4,29.4,81.3z M23.7,60.4c0.9,0,1.6,0.7,1.6,1.6s-0.7,1.6-1.6,1.6s-1.6-0.7-1.6-1.6S22.8,60.4,23.7,60.4z M21.2,65.1
		c0-0.5,0.4-1,1-1h3c0.5,0,1,0.5,1,1l0.5,4.9c0,0.5-0.4,1-1,1h-0.3l-0.7,6.3c0,0.3-0.3,0.6-0.6,0.6h-0.8c-0.3,0-0.6-0.3-0.6-0.6
		L21.9,71h-0.3c-0.5,0-1-0.5-1-1L21.2,65.1z M19.8,79.7c0.9,0,1.6,0.7,1.6,1.6s-0.7,1.6-1.6,1.6s-1.6-0.7-1.6-1.6
		C18.2,80.4,18.9,79.7,19.8,79.7z"/>
	<path id="XMLID_193_" fill="#FFFFFF" d="M21.6,71h0.3l0.7,6.3c0,0.3,0.3,0.6,0.6,0.6H24c0.3,0,0.6-0.3,0.6-0.6l0.7-6.3h0.3
		c0.5,0,1-0.5,1-1l-0.5-4.9c0-0.5-0.4-1-1-1h-3c-0.5,0-1,0.5-1,1L20.7,70C20.7,70.5,21.1,71,21.6,71z"/>
	<circle id="XMLID_194_" fill="#FFFFFF" cx="23.7" cy="62" r="1.6"/>
	<path id="XMLID_195_" fill="#FFFFFF" d="M29.6,71h0.3l0.7,6.3c0,0.3,0.3,0.6,0.6,0.6H32c0.3,0,0.6-0.3,0.6-0.6l0.7-6.3h0.3
		c0.5,0,1-0.5,1-1l-0.5-4.9c0-0.5-0.4-1-1-1h-3c-0.5,0-1,0.5-1,1L28.6,70C28.6,70.5,29,71,29.6,71z"/>
	<circle id="XMLID_196_" fill="#FFFFFF" cx="31.6" cy="62" r="1.6"/>
	<path id="XMLID_197_" fill="#FFFFFF" d="M37.5,71h0.3l0.7,6.3c0,0.3,0.3,0.6,0.6,0.6h0.8c0.3,0,0.6-0.3,0.6-0.6l0.7-6.3h0.3
		c0.5,0,1-0.5,1-1L42,65.1c0-0.5-0.4-1-1-1h-3c-0.5,0-1,0.5-1,1L36.5,70C36.5,70.5,37,71,37.5,71z"/>
	<circle id="XMLID_198_" fill="#FFFFFF" cx="39.5" cy="62" r="1.6"/>
	<path id="XMLID_199_" fill="#FFFFFF" d="M21.9,90.1c0.5,0,1-0.4,1-0.9l-0.5-4.7c0-0.5-0.4-0.9-1-0.9h-3c-0.5,0-1,0.4-1,0.9
		l-0.5,4.4l0,0c1.3,1.3,2.8,2.5,4.4,3.5l0,0l0.3-2.2h0.3V90.1z"/>
	<circle id="XMLID_200_" fill="#FFFFFF" cx="19.8" cy="81.3" r="1.6"/>
	<path id="XMLID_201_" fill="#FFFFFF" d="M29.8,90.1c0.5,0,1-0.4,1-0.9l-0.5-4.7c0-0.5-0.4-0.9-1-0.9h-3c-0.5,0-1,0.4-1,0.9
		l-0.5,4.7c0,0.5,0.4,0.9,1,0.9H26l0.5,4.4l0,0c0.8,0.2,1.6,0.4,2.4,0.5l0,0l0.6-4.8L29.8,90.1L29.8,90.1z"/>
	<circle id="XMLID_202_" fill="#FFFFFF" cx="27.7" cy="81.3" r="1.6"/>
	<path id="XMLID_203_" fill="#FFFFFF" d="M37.7,90.1c0.5,0,1-0.4,1-0.9l-0.5-4.7c0-0.5-0.4-0.9-1-0.9h-3c-0.5,0-1,0.4-1,0.9
		l-0.5,4.7c0,0.5,0.4,0.9,1,0.9H34l0.6,4.8l0,0c0.8-0.1,1.6-0.3,2.4-0.5l0,0l0.5-4.3H37.7z"/>
	<circle id="XMLID_204_" fill="#FFFFFF" cx="35.7" cy="81.3" r="1.6"/>
	<path id="XMLID_205_" fill="#FFFFFF" d="M44.9,83.6h-3c-0.5,0-1,0.4-1,0.9l-0.5,4.7c0,0.5,0.4,0.9,1,0.9h0.3l0.3,2.2l0,0
		c1.6-0.9,3.1-2.1,4.4-3.5l0,0l-0.5-4.4C45.9,83.9,45.4,83.6,44.9,83.6z"/>
	<circle id="XMLID_206_" fill="#FFFFFF" cx="43.4" cy="81.3" r="1.6"/>
</g>
<g id="XMLID_58_">
	<path id="XMLID_59_" fill="#77787B" d="M65.4,85.1c0.4-0.1,0.9-0.1,1.5-0.1c0.8,0,1.3,0.2,1.7,0.5c0.3,0.3,0.5,0.7,0.5,1.3
		c0,0.5-0.2,1-0.5,1.3c-0.4,0.4-1.1,0.7-1.9,0.7c-0.2,0-0.5,0-0.6-0.1v2.4h-0.8v-6H65.4z M66.2,88c0.2,0,0.4,0.1,0.6,0.1
		c0.9,0,1.5-0.5,1.5-1.3s-0.6-1.2-1.4-1.2c-0.3,0-0.6,0-0.7,0.1V88z"/>
	<path id="XMLID_62_" fill="#77787B" d="M71.7,91.2c-1.2,0-2.1-0.9-2.1-2.2c0-1.5,1-2.3,2.2-2.3c1.3,0,2.1,0.9,2.1,2.2
		C73.9,90.5,72.8,91.2,71.7,91.2L71.7,91.2z M71.8,90.6c0.8,0,1.3-0.7,1.3-1.7c0-0.7-0.4-1.7-1.3-1.7s-1.3,0.9-1.3,1.7
		C70.4,89.8,71,90.6,71.8,90.6L71.8,90.6z"/>
	<path id="XMLID_65_" fill="#77787B" d="M74.9,88.1c0-0.6,0-1,0-1.4h0.7v0.7l0,0c0.3-0.5,0.8-0.8,1.5-0.8c1.1,0,1.9,0.9,1.9,2.2
		c0,1.6-1,2.3-2,2.3c-0.6,0-1.1-0.3-1.3-0.7l0,0v2.4h-0.8C74.9,92.8,74.9,88.1,74.9,88.1z M75.7,89.3c0,0.1,0,0.2,0,0.3
		c0.1,0.5,0.6,0.9,1.2,0.9c0.8,0,1.3-0.7,1.3-1.7c0-0.9-0.5-1.6-1.3-1.6c-0.5,0-1.1,0.4-1.2,1c0,0.1,0,0.2,0,0.3V89.3z"/>
	<path id="XMLID_68_" fill="#77787B" d="M83.7,89.9c0,0.5,0,0.9,0,1.2H83v-0.7l0,0c-0.2,0.4-0.7,0.8-1.4,0.8c-0.7,0-1.5-0.4-1.5-1.9
		v-2.5h0.8v2.4c0,0.8,0.3,1.4,1,1.4c0.5,0,0.9-0.4,1-0.7c0-0.1,0.1-0.3,0.1-0.4v-2.7h0.8v3.1H83.7z"/>
	<path id="XMLID_70_" fill="#77787B" d="M85,84.7h0.8v6.4H85V84.7z"/>
	<path id="XMLID_72_" fill="#77787B" d="M90.2,90c0,0.4,0,0.7,0.1,1h-0.7l-0.1-0.5l0,0c-0.2,0.3-0.7,0.6-1.3,0.6
		c-0.9,0-1.3-0.6-1.3-1.3c0-1.1,0.9-1.6,2.6-1.6v-0.1c0-0.4-0.1-1-1-1c-0.4,0-0.8,0.1-1.1,0.3L87.1,87c0.4-0.2,0.9-0.4,1.4-0.4
		c1.3,0,1.7,0.9,1.7,1.8V90z M89.4,88.8c-0.9,0-1.8,0.1-1.8,1c0,0.5,0.3,0.8,0.7,0.8c0.6,0,0.9-0.4,1.1-0.7c0-0.1,0-0.2,0-0.3
		C89.4,89.6,89.4,88.8,89.4,88.8z"/>
	<path id="XMLID_75_" fill="#77787B" d="M92.4,85.7v1h1.1v0.6h-1.1v2.3c0,0.5,0.2,0.8,0.6,0.8c0.2,0,0.3,0,0.5-0.1v0.6
		C93.3,91,93.1,91,92.8,91c-0.4,0-0.7-0.1-0.9-0.3c-0.2-0.2-0.3-0.6-0.3-1.1v-2.4h-0.7v-0.6h0.7v-0.8L92.4,85.7z"/>
	<path id="XMLID_77_" fill="#77787B" d="M94.8,86c-0.3,0-0.5-0.2-0.5-0.5s0.2-0.5,0.5-0.5s0.5,0.2,0.5,0.5
		C95.3,85.7,95.1,86,94.8,86L94.8,86z M94.4,91.1v-4.4h0.8v4.4H94.4z"/>
	<path id="XMLID_80_" fill="#77787B" d="M98.3,91.2c-1.2,0-2.1-0.9-2.1-2.2c0-1.5,1-2.3,2.2-2.3c1.3,0,2.1,0.9,2.1,2.2
		C100.4,90.5,99.3,91.2,98.3,91.2L98.3,91.2z M98.3,90.6c0.8,0,1.3-0.7,1.3-1.7c0-0.7-0.4-1.7-1.3-1.7S97,88.1,97,88.9
		C97,89.8,97.5,90.6,98.3,90.6L98.3,90.6z"/>
	<path id="XMLID_83_" fill="#77787B" d="M101.4,87.9c0-0.5,0-0.8,0-1.2h0.7v0.7l0,0c0.2-0.4,0.7-0.8,1.4-0.8c0.6,0,1.5,0.4,1.5,1.9
		v2.6h-0.8v-2.5c0-0.7-0.3-1.3-1-1.3c-0.5,0-0.9,0.4-1.1,0.8c0,0.1-0.1,0.2-0.1,0.4v2.6h-0.8v-3.2H101.4z"/>
	<path id="XMLID_85_" fill="#77787B" d="M110.1,91.2c-1.2,0-2.1-0.9-2.1-2.2c0-1.5,1-2.3,2.2-2.3c1.3,0,2.1,0.9,2.1,2.2
		C112.3,90.5,111.2,91.2,110.1,91.2L110.1,91.2z M110.1,90.6c0.8,0,1.3-0.7,1.3-1.7c0-0.7-0.4-1.7-1.3-1.7s-1.3,0.9-1.3,1.7
		C108.8,89.8,109.4,90.6,110.1,90.6L110.1,90.6z"/>
	<path id="XMLID_88_" fill="#77787B" d="M113.3,91.1v-3.8h-0.6v-0.6h0.6v-0.2c0-0.6,0.1-1.2,0.5-1.5c0.3-0.3,0.7-0.4,1.1-0.4
		c0.3,0,0.5,0.1,0.7,0.1l-0.1,0.6c-0.1-0.1-0.3-0.1-0.5-0.1c-0.7,0-0.8,0.6-0.8,1.3v0.2h1.1v0.6h-1v3.8H113.3z"/>
	<path id="XMLID_90_" fill="#77787B" d="M117.8,91.1V85h0.9l1.9,3.1c0.4,0.7,0.8,1.4,1.1,2l0,0c-0.1-0.8-0.1-1.5-0.1-2.5V85h0.7v6.1
		h-0.8l-1.9-3.1c-0.4-0.7-0.8-1.4-1.1-2l0,0c0,0.8,0.1,1.5,0.1,2.5v2.6H117.8z"/>
	<path id="XMLID_92_" fill="#77787B" d="M124.2,86c-0.3,0-0.5-0.2-0.5-0.5s0.2-0.5,0.5-0.5s0.5,0.2,0.5,0.5
		C124.7,85.7,124.5,86,124.2,86L124.2,86z M123.8,91.1v-4.4h0.8v4.4H123.8z"/>
	<path id="XMLID_95_" fill="#77787B" d="M129.6,90.4c0,1-0.2,1.6-0.6,2c-0.4,0.4-1,0.5-1.6,0.5c-0.5,0-1.1-0.1-1.4-0.4l0.2-0.6
		c0.3,0.2,0.7,0.4,1.3,0.4c0.8,0,1.4-0.4,1.4-1.5v-0.5l0,0c-0.2,0.4-0.7,0.7-1.4,0.7c-1.1,0-1.9-0.9-1.9-2.1c0-1.5,1-2.3,2-2.3
		c0.8,0,1.2,0.4,1.4,0.8l0,0v-0.7h0.7c0,0.3,0,0.7,0,1.2L129.6,90.4L129.6,90.4z M128.9,88.4c0-0.1,0-0.2,0-0.4
		c-0.1-0.5-0.5-0.8-1.1-0.8c-0.8,0-1.3,0.6-1.3,1.7c0,0.8,0.4,1.6,1.3,1.6c0.5,0,0.9-0.3,1.1-0.8c0-0.1,0.1-0.3,0.1-0.4v-0.9H128.9z
		"/>
	<path id="XMLID_98_" fill="#77787B" d="M131.4,89c0,1.1,0.7,1.5,1.5,1.5c0.6,0,0.9-0.1,1.2-0.2l0.1,0.6c-0.3,0.1-0.8,0.3-1.5,0.3
		c-1.3,0-2.1-0.9-2.1-2.2c0-1.3,0.8-2.3,2.1-2.3c1.4,0,1.8,1.3,1.8,2.1c0,0.2,0,0.3,0,0.4h-3.1V89z M133.7,88.5
		c0-0.5-0.2-1.3-1.1-1.3c-0.8,0-1.2,0.7-1.2,1.3H133.7z"/>
	<path id="XMLID_101_" fill="#77787B" d="M135.5,88.1c0-0.5,0-1,0-1.4h0.7v0.9l0,0c0.2-0.6,0.7-1,1.2-1c0.1,0,0.1,0,0.2,0v0.7
		c-0.1,0-0.2,0-0.3,0c-0.6,0-1,0.4-1.1,1c0,0.1,0,0.2,0,0.4V91h-0.8v-2.9H135.5z"/>
	<path id="XMLID_103_" fill="#77787B" d="M138.8,86c-0.3,0-0.5-0.2-0.5-0.5s0.2-0.5,0.5-0.5s0.5,0.2,0.5,0.5
		C139.3,85.7,139.1,86,138.8,86L138.8,86z M138.4,91.1v-4.4h0.8v4.4H138.4z"/>
	<path id="XMLID_106_" fill="#77787B" d="M143.6,90c0,0.4,0,0.7,0.1,1H143l-0.1-0.5l0,0c-0.2,0.3-0.7,0.6-1.3,0.6
		c-0.9,0-1.3-0.6-1.3-1.3c0-1.1,0.9-1.6,2.6-1.6v-0.1c0-0.4-0.1-1-1-1c-0.4,0-0.8,0.1-1.1,0.3l-0.2-0.5c0.4-0.2,0.9-0.4,1.4-0.4
		c1.3,0,1.7,0.9,1.7,1.8L143.6,90L143.6,90z M142.8,88.8c-0.9,0-1.8,0.1-1.8,1c0,0.5,0.3,0.8,0.7,0.8c0.6,0,0.9-0.4,1.1-0.7
		c0-0.1,0-0.2,0-0.3V88.8z"/>
	<path id="XMLID_109_" fill="#77787B" d="M144.9,87.9c0-0.5,0-0.8,0-1.2h0.7v0.7l0,0c0.2-0.4,0.7-0.8,1.4-0.8c0.6,0,1.5,0.4,1.5,1.9
		v2.6h-0.8v-2.5c0-0.7-0.3-1.3-1-1.3c-0.5,0-0.9,0.4-1.1,0.8c0,0.1-0.1,0.2-0.1,0.4v2.6h-0.8v-3.2H144.9z"/>
	<path id="XMLID_111_" fill="#77787B" d="M149.8,90.2c0.2,0.1,0.7,0.3,1.1,0.3c0.6,0,0.8-0.3,0.8-0.6c0-0.4-0.2-0.6-0.8-0.8
		c-0.8-0.3-1.2-0.7-1.2-1.2c0-0.7,0.6-1.3,1.5-1.3c0.4,0,0.8,0.1,1.1,0.3l-0.2,0.6c-0.2-0.1-0.5-0.3-0.9-0.3c-0.5,0-0.7,0.3-0.7,0.6
		c0,0.4,0.3,0.5,0.8,0.7c0.7,0.3,1.1,0.7,1.1,1.3c0,0.8-0.6,1.3-1.6,1.3c-0.5,0-0.9-0.1-1.2-0.3L149.8,90.2z"/>
	<path id="XMLID_113_" fill="#77787B" d="M155.7,86.7l0.6,2.2c0.1,0.5,0.2,0.9,0.3,1.4l0,0c0.1-0.4,0.2-0.9,0.4-1.4l0.7-2.2h0.7
		l0.7,2.2c0.2,0.5,0.3,1,0.4,1.4l0,0c0.1-0.4,0.2-0.9,0.3-1.4l0.6-2.2h0.8l-1.4,4.4h-0.7l-0.7-2.1c-0.2-0.5-0.3-0.9-0.4-1.4l0,0
		c-0.1,0.5-0.2,1-0.4,1.5l-0.7,2.1h-0.7l-1.3-4.4L155.7,86.7L155.7,86.7z"/>
	<path id="XMLID_115_" fill="#77787B" d="M162,84.7h0.8v2.7l0,0c0.1-0.2,0.3-0.4,0.6-0.6c0.2-0.1,0.5-0.2,0.8-0.2
		c0.6,0,1.5,0.4,1.5,1.9v2.6h-0.8v-2.5c0-0.7-0.3-1.3-1-1.3c-0.5,0-0.9,0.4-1.1,0.8c0,0.1-0.1,0.2-0.1,0.4v2.6H162V84.7z"/>
	<path id="XMLID_117_" fill="#77787B" d="M168.7,91.2c-1.2,0-2.1-0.9-2.1-2.2c0-1.5,1-2.3,2.2-2.3c1.3,0,2.1,0.9,2.1,2.2
		C170.9,90.5,169.8,91.2,168.7,91.2L168.7,91.2z M168.8,90.6c0.8,0,1.3-0.7,1.3-1.7c0-0.7-0.4-1.7-1.3-1.7c-0.9,0-1.3,0.9-1.3,1.7
		C167.5,89.8,168,90.6,168.8,90.6L168.8,90.6z"/>
	<path id="XMLID_120_" fill="#77787B" d="M176.9,90.9c-0.2,0.1-0.7,0.3-1.3,0.3c-1.3,0-2.2-0.9-2.2-2.2c0-1.3,0.9-2.3,2.3-2.3
		c0.5,0,0.9,0.1,1.1,0.2l-0.2,0.6c-0.2-0.1-0.5-0.2-0.9-0.2c-1,0-1.5,0.7-1.5,1.6c0,1,0.6,1.6,1.5,1.6c0.4,0,0.7-0.1,1-0.2
		L176.9,90.9z"/>
	<path id="XMLID_122_" fill="#77787B" d="M180.9,90c0,0.4,0,0.7,0.1,1h-0.7l-0.1-0.5l0,0c-0.2,0.3-0.7,0.6-1.3,0.6
		c-0.9,0-1.3-0.6-1.3-1.3c0-1.1,0.9-1.6,2.6-1.6v-0.1c0-0.4-0.1-1-1-1c-0.4,0-0.8,0.1-1.1,0.3l-0.2-0.5c0.4-0.2,0.9-0.4,1.4-0.4
		c1.3,0,1.7,0.9,1.7,1.8L180.9,90L180.9,90z M180.1,88.8c-0.9,0-1.8,0.1-1.8,1c0,0.5,0.3,0.8,0.7,0.8c0.6,0,0.9-0.4,1.1-0.7
		c0-0.1,0-0.2,0-0.3V88.8z"/>
	<path id="XMLID_125_" fill="#77787B" d="M182.2,87.9c0-0.5,0-0.8,0-1.2h0.7v0.7l0,0c0.2-0.4,0.7-0.8,1.4-0.8c0.6,0,1.5,0.4,1.5,1.9
		v2.6H185v-2.5c0-0.7-0.3-1.3-1-1.3c-0.5,0-0.9,0.4-1.1,0.8c0,0.1-0.1,0.2-0.1,0.4v2.6H182v-3.2H182.2z"/>
	<path id="XMLID_127_" fill="#77787B" d="M187.9,84.8c-0.2,0.8-0.6,1.7-0.8,2.1l-0.5,0.1c0.2-0.5,0.4-1.5,0.5-2.1L187.9,84.8z"/>
	<path id="XMLID_129_" fill="#77787B" d="M189.6,85.7v1h1.1v0.6h-1.1v2.3c0,0.5,0.2,0.8,0.6,0.8c0.2,0,0.3,0,0.5-0.1v0.6
		c-0.2,0.1-0.4,0.1-0.7,0.1c-0.4,0-0.7-0.1-0.9-0.3c-0.2-0.2-0.3-0.6-0.3-1.1v-2.4h-0.7v-0.6h0.7v-0.8L189.6,85.7z"/>
</g>
<g id="XMLID_29_">
	<path id="XMLID_30_" fill="#77787B" d="M65.4,100.1c0-0.5,0-1,0-1.4H66v0.9l0,0c0.2-0.6,0.7-1,1.2-1c0.1,0,0.1,0,0.2,0v0.7
		c-0.1,0-0.2,0-0.3,0c-0.6,0-1,0.4-1.1,1c0,0.1,0,0.2,0,0.4v2.3h-0.8v-2.9H65.4z"/>
	<path id="XMLID_32_" fill="#77787B" d="M68.7,101c0,1.1,0.7,1.5,1.5,1.5c0.6,0,0.9-0.1,1.2-0.2l0.1,0.6c-0.3,0.1-0.8,0.3-1.5,0.3
		c-1.3,0-2.1-0.9-2.1-2.2c0-1.3,0.8-2.3,2.1-2.3c1.4,0,1.8,1.3,1.8,2.1c0,0.2,0,0.3,0,0.4h-3.1V101z M71,100.5
		c0-0.5-0.2-1.3-1.1-1.3c-0.8,0-1.2,0.7-1.2,1.3H71z"/>
	<path id="XMLID_35_" fill="#77787B" d="M75.8,102c0,0.4,0,0.7,0.1,1h-0.7l-0.1-0.5l0,0c-0.2,0.3-0.7,0.6-1.3,0.6
		c-0.9,0-1.3-0.6-1.3-1.3c0-1.1,0.9-1.6,2.6-1.6v-0.1c0-0.4-0.1-1-1-1c-0.4,0-0.8,0.1-1.1,0.3L72.7,99c0.4-0.2,0.9-0.4,1.4-0.4
		c1.3,0,1.7,0.9,1.7,1.8C75.8,100.4,75.8,102,75.8,102z M75,100.8c-0.9,0-1.8,0.1-1.8,1c0,0.5,0.3,0.8,0.7,0.8
		c0.6,0,0.9-0.4,1.1-0.7c0-0.1,0-0.2,0-0.3C75,101.6,75,100.8,75,100.8z"/>
	<path id="XMLID_38_" fill="#77787B" d="M80.8,96.7v5.3c0,0.4,0,0.8,0,1.1h-0.7v-0.8l0,0c-0.2,0.5-0.8,0.9-1.5,0.9
		c-1.1,0-1.9-0.9-1.9-2.2c0-1.5,0.9-2.3,2-2.3c0.7,0,1.1,0.3,1.3,0.7l0,0v-2.6L80.8,96.7L80.8,96.7z M80,100.5c0-0.1,0-0.2,0-0.3
		c-0.1-0.5-0.5-0.9-1.1-0.9c-0.8,0-1.3,0.7-1.3,1.7c0,0.9,0.4,1.6,1.3,1.6c0.5,0,1-0.4,1.2-1c0-0.1,0-0.2,0-0.3L80,100.5L80,100.5z"
		/>
	<path id="XMLID_41_" fill="#77787B" d="M85.8,103.2c-1.2,0-2.1-0.9-2.1-2.2c0-1.5,1-2.3,2.2-2.3c1.3,0,2.1,0.9,2.1,2.2
		C88,102.5,86.9,103.2,85.8,103.2L85.8,103.2z M85.9,102.6c0.8,0,1.3-0.7,1.3-1.7c0-0.7-0.4-1.7-1.3-1.7s-1.3,0.9-1.3,1.7
		C84.6,101.8,85.1,102.6,85.9,102.6L85.9,102.6z"/>
	<path id="XMLID_44_" fill="#77787B" d="M89,100.1c0-0.5,0-1,0-1.4h0.7v0.9l0,0c0.2-0.6,0.7-1,1.2-1c0.1,0,0.1,0,0.2,0v0.7
		c-0.1,0-0.2,0-0.3,0c-0.6,0-1,0.4-1.1,1c0,0.1,0,0.2,0,0.4v2.3H89V100.1z"/>
	<path id="XMLID_46_" fill="#77787B" d="M94.2,98.7l0.6,2.2c0.1,0.5,0.2,0.9,0.3,1.4l0,0c0.1-0.4,0.2-0.9,0.4-1.4l0.7-2.2h0.7
		l0.7,2.2c0.2,0.5,0.3,1,0.4,1.4l0,0c0.1-0.4,0.2-0.9,0.3-1.4l0.6-2.2h0.8l-1.4,4.4h-0.7l-0.7-2.1c-0.2-0.5-0.3-0.9-0.4-1.4l0,0
		c-0.1,0.5-0.2,1-0.4,1.5l-0.7,2.1h-0.7l-1.3-4.4L94.2,98.7L94.2,98.7z"/>
	<path id="XMLID_48_" fill="#77787B" d="M100.5,100.1c0-0.5,0-1,0-1.4h0.7v0.9l0,0c0.2-0.6,0.7-1,1.2-1c0.1,0,0.1,0,0.2,0v0.7
		c-0.1,0-0.2,0-0.3,0c-0.6,0-1,0.4-1.1,1c0,0.1,0,0.2,0,0.4v2.3h-0.8v-2.9H100.5z"/>
	<path id="XMLID_50_" fill="#77787B" d="M103.8,98c-0.3,0-0.5-0.2-0.5-0.5s0.2-0.5,0.5-0.5s0.5,0.2,0.5,0.5
		C104.3,97.7,104.1,98,103.8,98L103.8,98z M103.4,103.1v-4.4h0.8v4.4H103.4z"/>
	<path id="XMLID_53_" fill="#77787B" d="M106.5,97.7v1h1.1v0.6h-1.1v2.3c0,0.5,0.2,0.8,0.6,0.8c0.2,0,0.3,0,0.5-0.1v0.6
		c-0.2,0.1-0.4,0.1-0.7,0.1c-0.4,0-0.7-0.1-0.9-0.3c-0.2-0.2-0.3-0.6-0.3-1.1v-2.4H105v-0.6h0.7v-0.8L106.5,97.7z"/>
	<path id="XMLID_55_" fill="#77787B" d="M108.9,101c0,1.1,0.7,1.5,1.5,1.5c0.6,0,0.9-0.1,1.2-0.2l0.1,0.6c-0.3,0.1-0.8,0.3-1.5,0.3
		c-1.3,0-2.1-0.9-2.1-2.2c0-1.3,0.8-2.3,2.1-2.3c1.4,0,1.8,1.3,1.8,2.1c0,0.2,0,0.3,0,0.4h-3.1V101z M111.2,100.5
		c0-0.5-0.2-1.3-1.1-1.3c-0.8,0-1.2,0.7-1.2,1.3H111.2z"/>
</g>
<g id="XMLID_1_">
	<path id="XMLID_2_" fill="#77787B" d="M78.6,59.5h-7.9l-0.8,5.3c0.5-0.1,0.9-0.1,1.7-0.1c1.6,0,3.2,0.4,4.5,1.1
		c1.6,0.9,3,2.7,3,5.3c0,4.1-3.2,7.1-7.7,7.1c-2.3,0-4.2-0.6-5.2-1.3l0.7-2.1c0.9,0.5,2.6,1.2,4.5,1.2c2.6,0,4.9-1.7,4.9-4.5
		c0-2.7-1.8-4.6-6-4.6c-1.2,0-2.1,0.1-2.9,0.2l1.3-10h10L78.6,59.5L78.6,59.5z"/>
	<path id="XMLID_4_" fill="#77787B" d="M94.4,59.1c-0.6,0-1.3,0-2.1,0.2c-4.4,0.7-6.8,3.9-7.2,7.4h0.1c1-1.3,2.8-2.4,5.1-2.4
		c3.7,0,6.3,2.7,6.3,6.7c0,3.8-2.6,7.4-6.9,7.4c-4.4,0-7.3-3.5-7.3-8.9c0-4.1,1.4-7.3,3.5-9.4c1.7-1.7,4-2.8,6.7-3.1
		c0.8-0.1,1.5-0.2,2-0.2v2.3H94.4z M89.6,76.1c2.4,0,4-2,4-5s-1.7-4.8-4.3-4.8c-1.7,0-3.3,1-4.1,2.6c-0.2,0.3-0.3,0.7-0.3,1.2
		C85,73.5,86.6,76.1,89.6,76.1L89.6,76.1z"/>
	<path id="XMLID_7_" fill="#77787B" d="M98.1,81.9c0.7-1.9,1.6-5.3,1.9-7.7l3.1-0.3c-0.8,2.7-2.2,6.3-3.1,7.8L98.1,81.9z"/>
	<path id="XMLID_9_" fill="#77787B" d="M112.2,78.3c-4.1,0-6.8-3.8-6.9-10.7c0-7,3-10.8,7.3-10.8c4.4,0,6.9,3.9,6.9,10.5
		C119.5,74.4,116.8,78.3,112.2,78.3L112.2,78.3z M112.4,76.1c2.8,0,4.2-3.4,4.2-8.7c0-5.1-1.3-8.5-4.2-8.5c-2.6,0-4.2,3.3-4.2,8.5
		C108.1,72.8,109.8,76.1,112.4,76.1L112.4,76.1z"/>
	<path id="XMLID_12_" fill="#77787B" d="M128.7,78.3c-4.1,0-6.8-3.8-6.9-10.7c0-7,3-10.8,7.3-10.8c4.4,0,6.9,3.9,6.9,10.5
		C135.9,74.4,133.2,78.3,128.7,78.3L128.7,78.3z M128.8,76.1c2.8,0,4.2-3.4,4.2-8.7c0-5.1-1.3-8.5-4.2-8.5c-2.6,0-4.2,3.3-4.2,8.5
		C124.5,72.8,126.2,76.1,128.8,76.1L128.8,76.1z"/>
	<path id="XMLID_15_" fill="#77787B" d="M145.1,78.3c-4.1,0-6.8-3.8-6.9-10.7c0-7,3-10.8,7.3-10.8c4.4,0,6.9,3.9,6.9,10.5
		C152.3,74.4,149.6,78.3,145.1,78.3L145.1,78.3z M145.2,76.1c2.8,0,4.2-3.4,4.2-8.7c0-5.1-1.3-8.5-4.2-8.5c-2.6,0-4.2,3.3-4.2,8.5
		C140.9,72.8,142.6,76.1,145.2,76.1L145.2,76.1z"/>
	<path id="XMLID_18_" fill="#77787B" d="M153.9,81.9c0.7-1.9,1.6-5.3,1.9-7.7l3.1-0.3c-0.8,2.7-2.2,6.3-3.1,7.8L153.9,81.9z"/>
	<path id="XMLID_20_" fill="#77787B" d="M168.1,78.3c-4.1,0-6.8-3.8-6.9-10.7c0-7,3-10.8,7.3-10.8c4.4,0,6.9,3.9,6.9,10.5
		C175.3,74.4,172.7,78.3,168.1,78.3L168.1,78.3z M168.3,76.1c2.8,0,4.2-3.4,4.2-8.7c0-5.1-1.3-8.5-4.2-8.5c-2.6,0-4.2,3.3-4.2,8.5
		C164,72.8,165.6,76.1,168.3,76.1L168.3,76.1z"/>
	<path id="XMLID_23_" fill="#77787B" d="M184.5,78.3c-4.1,0-6.8-3.8-6.9-10.7c0-7,3-10.8,7.3-10.8c4.4,0,6.9,3.9,6.9,10.5
		C191.8,74.4,189.1,78.3,184.5,78.3L184.5,78.3z M184.7,76.1c2.8,0,4.2-3.4,4.2-8.7c0-5.1-1.3-8.5-4.2-8.5c-2.6,0-4.2,3.3-4.2,8.5
		C180.4,72.8,182.1,76.1,184.7,76.1L184.7,76.1z"/>
	<path id="XMLID_26_" fill="#77787B" d="M200.9,78.3c-4.1,0-6.8-3.8-6.9-10.7c0-7,3-10.8,7.3-10.8c4.4,0,6.9,3.9,6.9,10.5
		C208.2,74.4,205.5,78.3,200.9,78.3L200.9,78.3z M201.1,76.1c2.8,0,4.2-3.4,4.2-8.7c0-5.1-1.3-8.5-4.2-8.5c-2.6,0-4.2,3.3-4.2,8.5
		C196.8,72.8,198.5,76.1,201.1,76.1L201.1,76.1z"/>
</g>
</svg>
