<?xml version="1.0" encoding="utf-8"?>
<!-- Generator: Adobe Illustrator 19.0.0, SVG Export Plug-In . SVG Version: 6.00 Build 0)  -->
<svg version="1.2" baseProfile="tiny" id="Layer_1" xmlns="http://www.w3.org/2000/svg" xmlns:xlink="http://www.w3.org/1999/xlink"
	 x="0px" y="0px" viewBox="13 49.9 202.9 55.7" xml:space="preserve">
<g id="XMLID_57_">
	<path id="XMLID_58_" fill="#77787B" d="M72.6,89.5c-0.3,0.1-0.9,0.3-1.6,0.3c-1.7,0-3-1.1-3-3.1c0-1.9,1.3-3.2,3.2-3.2
		c0.7,0,1.2,0.2,1.4,0.3l-0.2,0.6c-0.3-0.1-0.7-0.3-1.2-0.3c-1.4,0-2.4,0.9-2.4,2.5c0,1.5,0.9,2.4,2.3,2.4c0.5,0,1-0.1,1.3-0.3
		L72.6,89.5z"/>
	<path id="XMLID_60_" fill="#77787B" d="M73.6,83.3h0.8V86l0,0c0.1-0.2,0.3-0.4,0.6-0.6c0.2-0.1,0.5-0.2,0.8-0.2
		c0.6,0,1.5,0.4,1.5,1.9v2.6h-0.8v-2.5c0-0.7-0.3-1.3-1-1.3c-0.5,0-0.9,0.4-1.1,0.8c0,0.1-0.1,0.2-0.1,0.4v2.6h-0.8L73.6,83.3
		L73.6,83.3z"/>
	<path id="XMLID_62_" fill="#77787B" d="M79,84.6c-0.3,0-0.5-0.2-0.5-0.5s0.2-0.5,0.5-0.5s0.5,0.2,0.5,0.5
		C79.5,84.3,79.3,84.6,79,84.6L79,84.6z M78.6,89.7v-4.4h0.8v4.4H78.6z"/>
	<path id="XMLID_65_" fill="#77787B" d="M80.7,83.3h0.8v6.4h-0.8V83.3z"/>
	<path id="XMLID_67_" fill="#77787B" d="M86.6,83.3v5.3c0,0.4,0,0.8,0,1.1h-0.7v-0.8l0,0c-0.2,0.5-0.8,0.9-1.5,0.9
		c-1.1,0-1.9-0.9-1.9-2.2c0-1.5,0.9-2.3,2-2.3c0.7,0,1.1,0.3,1.3,0.7l0,0v-2.6L86.6,83.3L86.6,83.3z M85.8,87.1c0-0.1,0-0.2,0-0.3
		c-0.1-0.5-0.5-0.9-1.1-0.9c-0.8,0-1.3,0.7-1.3,1.7c0,0.9,0.4,1.6,1.3,1.6c0.5,0,1-0.4,1.2-1c0-0.1,0-0.2,0-0.3L85.8,87.1L85.8,87.1
		z"/>
	<path id="XMLID_70_" fill="#77787B" d="M87.9,86.7c0-0.5,0-1,0-1.4h0.7v0.9l0,0c0.2-0.6,0.7-1,1.2-1c0.1,0,0.1,0,0.2,0V86
		c-0.1,0-0.2,0-0.3,0c-0.6,0-1,0.4-1.1,1c0,0.1,0,0.2,0,0.4v2.3h-0.8v-3H87.9z"/>
	<path id="XMLID_72_" fill="#77787B" d="M91.2,87.6c0,1.1,0.7,1.5,1.5,1.5c0.6,0,0.9-0.1,1.2-0.2l0.1,0.6c-0.3,0.1-0.8,0.3-1.5,0.3
		c-1.3,0-2.1-0.9-2.1-2.2c0-1.3,0.8-2.3,2.1-2.3c1.4,0,1.8,1.3,1.8,2.1c0,0.2,0,0.3,0,0.4h-3.1V87.6z M93.5,87.1
		c0-0.5-0.2-1.3-1.1-1.3c-0.8,0-1.2,0.7-1.2,1.3H93.5z"/>
	<path id="XMLID_75_" fill="#77787B" d="M95.3,86.5c0-0.5,0-0.8,0-1.2H96V86l0,0c0.2-0.4,0.7-0.8,1.4-0.8c0.6,0,1.5,0.4,1.5,1.9v2.6
		h-0.8v-2.5c0-0.7-0.3-1.3-1-1.3c-0.5,0-0.9,0.4-1.1,0.8c0,0.1-0.1,0.2-0.1,0.4v2.6h-0.8v-3.2H95.3z"/>
	<path id="XMLID_77_" fill="#77787B" d="M105.9,83.3v5.3c0,0.4,0,0.8,0,1.1h-0.7v-0.8l0,0c-0.2,0.5-0.8,0.9-1.5,0.9
		c-1.1,0-1.9-0.9-1.9-2.2c0-1.5,0.9-2.3,2-2.3c0.7,0,1.1,0.3,1.3,0.7l0,0v-2.6L105.9,83.3L105.9,83.3z M105.1,87.1
		c0-0.1,0-0.2,0-0.3c-0.1-0.5-0.5-0.9-1.1-0.9c-0.8,0-1.3,0.7-1.3,1.7c0,0.9,0.4,1.6,1.3,1.6c0.5,0,1-0.4,1.2-1c0-0.1,0-0.2,0-0.3
		L105.1,87.1L105.1,87.1z"/>
	<path id="XMLID_80_" fill="#77787B" d="M107.6,84.6c-0.3,0-0.5-0.2-0.5-0.5s0.2-0.5,0.5-0.5s0.5,0.2,0.5,0.5
		C108.1,84.3,107.9,84.6,107.6,84.6L107.6,84.6z M107.2,89.7v-4.4h0.8v4.4H107.2z"/>
	<path id="XMLID_83_" fill="#77787B" d="M109.8,87.6c0,1.1,0.7,1.5,1.5,1.5c0.6,0,0.9-0.1,1.2-0.2l0.1,0.6c-0.3,0.1-0.8,0.3-1.5,0.3
		c-1.3,0-2.1-0.9-2.1-2.2c0-1.3,0.8-2.3,2.1-2.3c1.4,0,1.8,1.3,1.8,2.1c0,0.2,0,0.3,0,0.4h-3.1V87.6z M112.1,87.1
		c0-0.5-0.2-1.3-1.1-1.3c-0.8,0-1.2,0.7-1.2,1.3H112.1z"/>
	<path id="XMLID_86_" fill="#77787B" d="M115.8,89.7v-3.8h-0.6v-0.6h0.6v-0.2c0-0.6,0.1-1.2,0.5-1.5c0.3-0.3,0.7-0.4,1.1-0.4
		c0.3,0,0.5,0.1,0.7,0.1l-0.1,0.6c-0.1-0.1-0.3-0.1-0.5-0.1c-0.7,0-0.8,0.6-0.8,1.3v0.2h1.1v0.6h-1v3.8H115.8z"/>
	<path id="XMLID_88_" fill="#77787B" d="M118.4,86.7c0-0.5,0-1,0-1.4h0.7v0.9l0,0c0.2-0.6,0.7-1,1.2-1c0.1,0,0.1,0,0.2,0V86
		c-0.1,0-0.2,0-0.3,0c-0.6,0-1,0.4-1.1,1c0,0.1,0,0.2,0,0.4v2.3h-0.8v-3H118.4z"/>
	<path id="XMLID_90_" fill="#77787B" d="M123,89.8c-1.2,0-2.1-0.9-2.1-2.2c0-1.5,1-2.3,2.2-2.3c1.3,0,2.1,0.9,2.1,2.2
		C125.2,89.1,124.1,89.8,123,89.8L123,89.8z M123.1,89.2c0.8,0,1.3-0.7,1.3-1.7c0-0.7-0.4-1.7-1.3-1.7s-1.3,0.9-1.3,1.7
		C121.7,88.4,122.3,89.2,123.1,89.2L123.1,89.2z"/>
	<path id="XMLID_93_" fill="#77787B" d="M126.2,86.5c0-0.5,0-0.8,0-1.2h0.7V86l0,0c0.2-0.4,0.6-0.8,1.4-0.8c0.6,0,1,0.4,1.2,0.9l0,0
		c0.1-0.3,0.3-0.4,0.5-0.6c0.3-0.2,0.5-0.3,1-0.3c0.6,0,1.4,0.4,1.4,1.9v2.6h-0.8v-2.5c0-0.8-0.3-1.3-0.9-1.3
		c-0.5,0-0.8,0.3-0.9,0.7c0,0.1-0.1,0.3-0.1,0.4v2.7h-0.8V87c0-0.7-0.3-1.2-0.9-1.2c-0.5,0-0.9,0.4-1,0.8c0,0.1-0.1,0.3-0.1,0.4v2.6
		h-0.8v-3.1H126.2z"/>
	<path id="XMLID_95_" fill="#77787B" d="M135.6,86.7c0-0.6,0-1,0-1.4h0.7V86l0,0c0.3-0.5,0.8-0.8,1.5-0.8c1.1,0,1.9,0.9,1.9,2.2
		c0,1.6-1,2.3-2,2.3c-0.6,0-1.1-0.3-1.3-0.7l0,0v2.4h-0.8L135.6,86.7L135.6,86.7z M136.4,87.9c0,0.1,0,0.2,0,0.3
		c0.1,0.5,0.6,0.9,1.2,0.9c0.8,0,1.3-0.7,1.3-1.7c0-0.9-0.5-1.6-1.3-1.6c-0.5,0-1.1,0.4-1.2,1c0,0.1,0,0.2,0,0.3V87.9z"/>
	<path id="XMLID_98_" fill="#77787B" d="M140.7,86.7c0-0.5,0-1,0-1.4h0.7v0.9l0,0c0.2-0.6,0.7-1,1.2-1c0.1,0,0.1,0,0.2,0V86
		c-0.1,0-0.2,0-0.3,0c-0.6,0-1,0.4-1.1,1c0,0.1,0,0.2,0,0.4v2.3h-0.8v-3H140.7z"/>
	<path id="XMLID_100_" fill="#77787B" d="M144,87.6c0,1.1,0.7,1.5,1.5,1.5c0.6,0,0.9-0.1,1.2-0.2l0.1,0.6c-0.3,0.1-0.8,0.3-1.5,0.3
		c-1.3,0-2.1-0.9-2.1-2.2c0-1.3,0.8-2.3,2.1-2.3c1.4,0,1.8,1.3,1.8,2.1c0,0.2,0,0.3,0,0.4H144V87.6z M146.3,87.1
		c0-0.5-0.2-1.3-1.1-1.3c-0.8,0-1.2,0.7-1.2,1.3H146.3z"/>
	<path id="XMLID_103_" fill="#77787B" d="M148.4,85.3l0.9,2.4c0.1,0.4,0.3,0.8,0.4,1.1l0,0c0.1-0.4,0.2-0.7,0.4-1.1l0.8-2.4h0.8
		l-1.7,4.4h-0.8l-1.7-4.4H148.4z"/>
	<path id="XMLID_105_" fill="#77787B" d="M152.8,87.6c0,1.1,0.7,1.5,1.5,1.5c0.6,0,0.9-0.1,1.2-0.2l0.1,0.6
		c-0.3,0.1-0.8,0.3-1.5,0.3c-1.3,0-2.1-0.9-2.1-2.2c0-1.3,0.8-2.3,2.1-2.3c1.4,0,1.8,1.3,1.8,2.1c0,0.2,0,0.3,0,0.4h-3.1V87.6z
		 M155.1,87.1c0-0.5-0.2-1.3-1.1-1.3c-0.8,0-1.2,0.7-1.2,1.3H155.1z"/>
	<path id="XMLID_108_" fill="#77787B" d="M156.8,86.5c0-0.5,0-0.8,0-1.2h0.7V86l0,0c0.2-0.4,0.7-0.8,1.4-0.8c0.6,0,1.5,0.4,1.5,1.9
		v2.6h-0.8v-2.5c0-0.7-0.3-1.3-1-1.3c-0.5,0-0.9,0.4-1.1,0.8c0,0.1-0.1,0.2-0.1,0.4v2.6h-0.8v-3.2H156.8z"/>
	<path id="XMLID_110_" fill="#77787B" d="M162.8,84.3v1h1.1v0.6h-1.1v2.3c0,0.5,0.2,0.8,0.6,0.8c0.2,0,0.3,0,0.5-0.1v0.6
		c-0.2,0.1-0.4,0.1-0.7,0.1c-0.4,0-0.7-0.1-0.9-0.3s-0.3-0.6-0.3-1.1v-2.4h-0.7v-0.6h0.7v-0.8L162.8,84.3z"/>
	<path id="XMLID_112_" fill="#77787B" d="M167.9,88.6c0,0.4,0,0.7,0.1,1h-0.7l-0.1-0.5l0,0c-0.2,0.3-0.7,0.6-1.3,0.6
		c-0.9,0-1.3-0.6-1.3-1.3c0-1.1,0.9-1.6,2.6-1.6v-0.1c0-0.4-0.1-1-1-1c-0.4,0-0.8,0.1-1.1,0.3l-0.2-0.5c0.4-0.2,0.9-0.4,1.4-0.4
		c1.3,0,1.7,0.9,1.7,1.8L167.9,88.6L167.9,88.6z M167.1,87.4c-0.9,0-1.8,0.1-1.8,1c0,0.5,0.3,0.8,0.7,0.8c0.6,0,0.9-0.4,1.1-0.7
		c0-0.1,0-0.2,0-0.3V87.4z"/>
	<path id="XMLID_115_" fill="#77787B" d="M169.1,83.3h0.8V86l0,0c0.3-0.5,0.8-0.8,1.5-0.8c1.1,0,1.8,0.9,1.8,2.2c0,1.6-1,2.3-2,2.3
		c-0.6,0-1.1-0.2-1.5-0.8l0,0v0.7H169c0-0.3,0-0.7,0-1.1L169.1,83.3L169.1,83.3z M169.9,87.9c0,0.1,0,0.2,0,0.3
		c0.2,0.5,0.6,0.9,1.2,0.9c0.8,0,1.3-0.7,1.3-1.7c0-0.9-0.5-1.6-1.3-1.6c-0.5,0-1,0.4-1.2,1c0,0.1,0,0.2,0,0.3V87.9z"/>
	<path id="XMLID_118_" fill="#77787B" d="M174.2,83.3h0.8v6.4h-0.8V83.3z"/>
	<path id="XMLID_120_" fill="#77787B" d="M176.8,87.6c0,1.1,0.7,1.5,1.5,1.5c0.6,0,0.9-0.1,1.2-0.2l0.1,0.6
		c-0.3,0.1-0.8,0.3-1.5,0.3c-1.3,0-2.1-0.9-2.1-2.2c0-1.3,0.8-2.3,2.1-2.3c1.4,0,1.8,1.3,1.8,2.1c0,0.2,0,0.3,0,0.4h-3.1V87.6z
		 M179.1,87.1c0-0.5-0.2-1.3-1.1-1.3c-0.8,0-1.2,0.7-1.2,1.3H179.1z"/>
	<path id="XMLID_123_" fill="#77787B" d="M186.5,83.3v5.3c0,0.4,0,0.8,0,1.1h-0.7v-0.8l0,0c-0.2,0.5-0.8,0.9-1.5,0.9
		c-1.1,0-1.9-0.9-1.9-2.2c0-1.5,0.9-2.3,2-2.3c0.7,0,1.1,0.3,1.3,0.7l0,0v-2.6L186.5,83.3L186.5,83.3z M185.8,87.1
		c0-0.1,0-0.2,0-0.3c-0.1-0.5-0.5-0.9-1.1-0.9c-0.8,0-1.3,0.7-1.3,1.7c0,0.9,0.4,1.6,1.3,1.6c0.5,0,1-0.4,1.2-1c0-0.1,0-0.2,0-0.3
		L185.8,87.1L185.8,87.1z"/>
	<path id="XMLID_126_" fill="#77787B" d="M188.2,84.6c-0.3,0-0.5-0.2-0.5-0.5s0.2-0.5,0.5-0.5s0.5,0.2,0.5,0.5
		C188.7,84.3,188.6,84.6,188.2,84.6L188.2,84.6z M187.9,89.7v-4.4h0.8v4.4H187.9z"/>
	<path id="XMLID_129_" fill="#77787B" d="M189.9,88.8c0.2,0.1,0.7,0.3,1.1,0.3c0.6,0,0.8-0.3,0.8-0.6c0-0.4-0.2-0.6-0.8-0.8
		c-0.8-0.3-1.2-0.7-1.2-1.2c0-0.7,0.6-1.3,1.5-1.3c0.4,0,0.8,0.1,1.1,0.3l-0.2,0.6c-0.2-0.1-0.5-0.3-0.9-0.3c-0.5,0-0.7,0.3-0.7,0.6
		c0,0.4,0.3,0.5,0.8,0.7c0.7,0.3,1.1,0.7,1.1,1.3c0,0.8-0.6,1.3-1.6,1.3c-0.5,0-0.9-0.1-1.2-0.3L189.9,88.8z"/>
	<path id="XMLID_131_" fill="#77787B" d="M194,87.6c0,1.1,0.7,1.5,1.5,1.5c0.6,0,0.9-0.1,1.2-0.2l0.1,0.6c-0.3,0.1-0.8,0.3-1.5,0.3
		c-1.3,0-2.1-0.9-2.1-2.2c0-1.3,0.8-2.3,2.1-2.3c1.4,0,1.8,1.3,1.8,2.1c0,0.2,0,0.3,0,0.4H194V87.6z M196.3,87.1
		c0-0.5-0.2-1.3-1.1-1.3c-0.8,0-1.2,0.7-1.2,1.3H196.3z"/>
	<path id="XMLID_134_" fill="#77787B" d="M201.1,88.6c0,0.4,0,0.7,0.1,1h-0.7l-0.1-0.5l0,0c-0.2,0.3-0.7,0.6-1.3,0.6
		c-0.9,0-1.3-0.6-1.3-1.3c0-1.1,0.9-1.6,2.6-1.6v-0.1c0-0.4-0.1-1-1-1c-0.4,0-0.8,0.1-1.1,0.3l-0.2-0.5c0.4-0.2,0.9-0.4,1.4-0.4
		c1.3,0,1.7,0.9,1.7,1.8L201.1,88.6L201.1,88.6z M200.3,87.4c-0.9,0-1.8,0.1-1.8,1c0,0.5,0.3,0.8,0.7,0.8c0.6,0,0.9-0.4,1.1-0.7
		c0-0.1,0-0.2,0-0.3V87.4z"/>
	<path id="XMLID_137_" fill="#77787B" d="M202.3,88.8c0.2,0.1,0.7,0.3,1.1,0.3c0.6,0,0.8-0.3,0.8-0.6c0-0.4-0.2-0.6-0.8-0.8
		c-0.8-0.3-1.2-0.7-1.2-1.2c0-0.7,0.6-1.3,1.5-1.3c0.4,0,0.8,0.1,1.1,0.3l-0.2,0.6c-0.2-0.1-0.5-0.3-0.9-0.3c-0.5,0-0.7,0.3-0.7,0.6
		c0,0.4,0.3,0.5,0.8,0.7c0.7,0.3,1.1,0.7,1.1,1.3c0,0.8-0.6,1.3-1.6,1.3c-0.5,0-0.9-0.1-1.2-0.3L202.3,88.8z"/>
	<path id="XMLID_139_" fill="#77787B" d="M206.4,87.6c0,1.1,0.7,1.5,1.5,1.5c0.6,0,0.9-0.1,1.2-0.2l0.1,0.6
		c-0.3,0.1-0.8,0.3-1.5,0.3c-1.3,0-2.1-0.9-2.1-2.2c0-1.3,0.8-2.3,2.1-2.3c1.4,0,1.8,1.3,1.8,2.1c0,0.2,0,0.3,0,0.4h-3.1V87.6z
		 M208.7,87.1c0-0.5-0.2-1.3-1.1-1.3c-0.8,0-1.2,0.7-1.2,1.3H208.7z"/>
	<path id="XMLID_142_" fill="#77787B" d="M210.3,88.8c0.2,0.1,0.7,0.3,1.1,0.3c0.6,0,0.8-0.3,0.8-0.6c0-0.4-0.2-0.6-0.8-0.8
		c-0.8-0.3-1.2-0.7-1.2-1.2c0-0.7,0.6-1.3,1.5-1.3c0.4,0,0.8,0.1,1.1,0.3l-0.2,0.6c-0.2-0.1-0.5-0.3-0.9-0.3c-0.5,0-0.7,0.3-0.7,0.6
		c0,0.4,0.3,0.5,0.8,0.7c0.7,0.3,1.1,0.7,1.1,1.3c0,0.8-0.6,1.3-1.6,1.3c-0.5,0-0.9-0.1-1.2-0.3L210.3,88.8z"/>
</g>
<g id="XMLID_12_">
	<path id="XMLID_13_" fill="#77787B" d="M68.8,99.6c0,1.1,0.7,1.5,1.5,1.5c0.6,0,0.9-0.1,1.2-0.2l0.1,0.6c-0.3,0.1-0.8,0.3-1.5,0.3
		c-1.3,0-2.1-0.9-2.1-2.2c0-1.3,0.8-2.3,2.1-2.3c1.4,0,1.8,1.3,1.8,2.1c0,0.2,0,0.3,0,0.4h-3.1V99.6z M71.1,99.1
		c0-0.5-0.2-1.3-1.1-1.3c-0.8,0-1.2,0.7-1.2,1.3H71.1z"/>
	<path id="XMLID_16_" fill="#77787B" d="M73.2,97.3l0.9,2.4c0.1,0.4,0.3,0.8,0.4,1.1l0,0c0.1-0.4,0.2-0.7,0.4-1.1l0.8-2.4h0.8
		l-1.7,4.4H74l-1.7-4.4H73.2z"/>
	<path id="XMLID_18_" fill="#77787B" d="M77.6,99.6c0,1.1,0.7,1.5,1.5,1.5c0.6,0,0.9-0.1,1.2-0.2l0.1,0.6c-0.3,0.1-0.8,0.3-1.5,0.3
		c-1.3,0-2.1-0.9-2.1-2.2c0-1.3,0.8-2.3,2.1-2.3c1.4,0,1.8,1.3,1.8,2.1c0,0.2,0,0.3,0,0.4h-3.1V99.6z M79.9,99.1
		c0-0.5-0.2-1.3-1.1-1.3c-0.8,0-1.2,0.7-1.2,1.3H79.9z"/>
	<path id="XMLID_21_" fill="#77787B" d="M81.6,98.7c0-0.5,0-1,0-1.4h0.7v0.9l0,0c0.2-0.6,0.7-1,1.2-1c0.1,0,0.1,0,0.2,0v0.7
		c-0.1,0-0.2,0-0.3,0c-0.6,0-1,0.4-1.1,1c0,0.1,0,0.2,0,0.4v2.3h-0.8v-2.9H81.6z"/>
	<path id="XMLID_23_" fill="#77787B" d="M85.1,97.3l0.9,2.6c0.1,0.3,0.2,0.6,0.3,0.9l0,0c0.1-0.3,0.2-0.6,0.3-0.9l0.9-2.6h0.8
		l-1.2,3.1c-0.6,1.5-1,2.2-1.5,2.7c-0.4,0.3-0.8,0.5-1,0.5l-0.2-0.7c0.2-0.1,0.5-0.2,0.7-0.4s0.5-0.5,0.7-0.9c0-0.1,0.1-0.1,0.1-0.2
		c0-0.1,0-0.1-0.1-0.2l-1.6-4h0.9V97.3z"/>
	<path id="XMLID_25_" fill="#77787B" d="M94.7,95.3v5.3c0,0.4,0,0.8,0,1.1H94v-0.8l0,0c-0.2,0.5-0.8,0.9-1.5,0.9
		c-1.1,0-1.9-0.9-1.9-2.2c0-1.5,0.9-2.3,2-2.3c0.7,0,1.1,0.3,1.3,0.7l0,0v-2.6L94.7,95.3L94.7,95.3z M93.9,99.1c0-0.1,0-0.2,0-0.3
		c-0.1-0.5-0.5-0.9-1.1-0.9c-0.8,0-1.3,0.7-1.3,1.7c0,0.9,0.4,1.6,1.3,1.6c0.5,0,1-0.4,1.2-1c0-0.1,0-0.2,0-0.3L93.9,99.1L93.9,99.1
		z"/>
	<path id="XMLID_28_" fill="#77787B" d="M99.1,100.6c0,0.4,0,0.7,0.1,1h-0.7l-0.1-0.5l0,0c-0.2,0.3-0.7,0.6-1.3,0.6
		c-0.9,0-1.3-0.6-1.3-1.3c0-1.1,0.9-1.6,2.6-1.6v-0.1c0-0.4-0.1-1-1-1c-0.4,0-0.8,0.1-1.1,0.3L96,97.6c0.4-0.2,0.9-0.4,1.4-0.4
		c1.3,0,1.7,0.9,1.7,1.8V100.6z M98.3,99.4c-0.9,0-1.8,0.1-1.8,1c0,0.5,0.3,0.8,0.7,0.8c0.6,0,0.9-0.4,1.1-0.7c0-0.1,0-0.2,0-0.3
		C98.3,100.2,98.3,99.4,98.3,99.4z"/>
	<path id="XMLID_31_" fill="#77787B" d="M100.6,97.3l0.9,2.6c0.1,0.3,0.2,0.6,0.3,0.9l0,0c0.1-0.3,0.2-0.6,0.3-0.9l0.9-2.6h0.8
		l-1.2,3.1c-0.6,1.5-1,2.2-1.5,2.7c-0.4,0.3-0.8,0.5-1,0.5L100,103c0.2-0.1,0.5-0.2,0.7-0.4c0.2-0.2,0.5-0.5,0.7-0.9
		c0-0.1,0.1-0.1,0.1-0.2c0-0.1,0-0.1-0.1-0.2l-1.6-4H100.6z"/>
	<path id="XMLID_33_" fill="#77787B" d="M106.8,96.6c-0.3,0-0.5-0.2-0.5-0.5s0.2-0.5,0.5-0.5s0.5,0.2,0.5,0.5
		C107.3,96.3,107.1,96.6,106.8,96.6L106.8,96.6z M106.4,101.7v-4.4h0.8v4.4H106.4z"/>
	<path id="XMLID_36_" fill="#77787B" d="M108.5,98.5c0-0.5,0-0.8,0-1.2h0.7V98l0,0c0.2-0.4,0.7-0.8,1.4-0.8c0.6,0,1.5,0.4,1.5,1.9
		v2.6h-0.8v-2.5c0-0.7-0.3-1.3-1-1.3c-0.5,0-0.9,0.4-1.1,0.8c0,0.1-0.1,0.2-0.1,0.4v2.6h-0.8v-3.2H108.5z"/>
	<path id="XMLID_38_" fill="#77787B" d="M115.5,101.7v-6.1h0.9l1.9,3.1c0.4,0.7,0.8,1.4,1.1,2l0,0c-0.1-0.8-0.1-1.5-0.1-2.5v-2.5
		h0.7v6.1h-0.8l-1.9-3.1c-0.4-0.7-0.8-1.4-1.1-2l0,0c0,0.8,0.1,1.5,0.1,2.5v2.6L115.5,101.7L115.5,101.7z"/>
	<path id="XMLID_40_" fill="#77787B" d="M121.8,96.6c-0.3,0-0.5-0.2-0.5-0.5s0.2-0.5,0.5-0.5s0.5,0.2,0.5,0.5
		C122.3,96.3,122.2,96.6,121.8,96.6L121.8,96.6z M121.5,101.7v-4.4h0.8v4.4H121.5z"/>
	<path id="XMLID_43_" fill="#77787B" d="M127.3,101c0,1-0.2,1.6-0.6,2c-0.4,0.4-1,0.5-1.6,0.5c-0.5,0-1.1-0.1-1.4-0.4l0.2-0.6
		c0.3,0.2,0.7,0.4,1.3,0.4c0.8,0,1.4-0.4,1.4-1.5v-0.5l0,0c-0.2,0.4-0.7,0.7-1.4,0.7c-1.1,0-1.9-0.9-1.9-2.1c0-1.5,1-2.3,2-2.3
		c0.8,0,1.2,0.4,1.4,0.8l0,0v-0.7h0.7c0,0.3,0,0.7,0,1.2L127.3,101L127.3,101z M126.5,99c0-0.1,0-0.2,0-0.4
		c-0.1-0.5-0.5-0.8-1.1-0.8c-0.8,0-1.3,0.6-1.3,1.7c0,0.8,0.4,1.6,1.3,1.6c0.5,0,0.9-0.3,1.1-0.8c0-0.1,0.1-0.3,0.1-0.4V99H126.5z"
		/>
	<path id="XMLID_46_" fill="#77787B" d="M129,99.6c0,1.1,0.7,1.5,1.5,1.5c0.6,0,0.9-0.1,1.2-0.2l0.1,0.6c-0.3,0.1-0.8,0.3-1.5,0.3
		c-1.3,0-2.1-0.9-2.1-2.2c0-1.3,0.8-2.3,2.1-2.3c1.4,0,1.8,1.3,1.8,2.1c0,0.2,0,0.3,0,0.4H129V99.6z M131.4,99.1
		c0-0.5-0.2-1.3-1.1-1.3c-0.8,0-1.2,0.7-1.2,1.3H131.4z"/>
	<path id="XMLID_49_" fill="#77787B" d="M133.1,98.7c0-0.5,0-1,0-1.4h0.7v0.9l0,0c0.2-0.6,0.7-1,1.2-1c0.1,0,0.1,0,0.2,0v0.7
		c-0.1,0-0.2,0-0.3,0c-0.6,0-1,0.4-1.1,1c0,0.1,0,0.2,0,0.4v2.3H133v-2.9H133.1z"/>
	<path id="XMLID_51_" fill="#77787B" d="M136.5,96.6c-0.3,0-0.5-0.2-0.5-0.5s0.2-0.5,0.5-0.5s0.5,0.2,0.5,0.5
		C137,96.3,136.8,96.6,136.5,96.6L136.5,96.6z M136.1,101.7v-4.4h0.8v4.4H136.1z"/>
	<path id="XMLID_54_" fill="#77787B" d="M141.3,100.6c0,0.4,0,0.7,0.1,1h-0.7l-0.1-0.5l0,0c-0.2,0.3-0.7,0.6-1.3,0.6
		c-0.9,0-1.3-0.6-1.3-1.3c0-1.1,0.9-1.6,2.6-1.6v-0.1c0-0.4-0.1-1-1-1c-0.4,0-0.8,0.1-1.1,0.3l-0.2-0.5c0.4-0.2,0.9-0.4,1.4-0.4
		c1.3,0,1.7,0.9,1.7,1.8L141.3,100.6L141.3,100.6z M140.5,99.4c-0.9,0-1.8,0.1-1.8,1c0,0.5,0.3,0.8,0.7,0.8c0.6,0,0.9-0.4,1.1-0.7
		c0-0.1,0-0.2,0-0.3V99.4z"/>
</g>
<g id="XMLID_1_">
	<path id="XMLID_2_" fill="#77787B" d="M69.2,76.5v-1.7l2.2-2.1c5.3-5.1,7.7-7.7,7.7-10.9c0-2.1-1-4.1-4.1-4.1c-1.9,0-3.5,1-4.4,1.8
		l-0.9-2c1.4-1.2,3.5-2.1,5.9-2.1c4.4,0,6.3,3.1,6.3,6c0,3.8-2.8,6.9-7.2,11.2l-1.6,1.5v0.1h9.3v2.3C82.4,76.5,69.2,76.5,69.2,76.5z
		"/>
	<path id="XMLID_4_" fill="#77787B" d="M86.2,73.3c0.8,0.5,2.6,1.3,4.6,1.3c3.6,0,4.7-2.3,4.7-4c0-2.9-2.7-4.2-5.4-4.2h-1.6v-2.1
		h1.6c2,0,4.6-1.1,4.6-3.5c0-1.7-1.1-3.1-3.6-3.1c-1.7,0-3.3,0.7-4.2,1.4l-0.8-2c1.1-0.8,3.2-1.6,5.5-1.6c4.1,0,6,2.4,6,5
		c0,2.2-1.3,4-3.8,4.9v0.1c2.6,0.5,4.6,2.4,4.6,5.3c0,3.3-2.6,6.2-7.6,6.2c-2.3,0-4.4-0.7-5.4-1.4L86.2,73.3z"/>
	<path id="XMLID_6_" fill="#77787B" d="M108.6,76.9c-4.1,0-6.8-3.8-6.9-10.7c0-7,3-10.8,7.3-10.8c4.4,0,6.9,3.9,6.9,10.5
		C115.8,73,113.2,76.9,108.6,76.9L108.6,76.9z M108.8,74.7c2.8,0,4.2-3.4,4.2-8.7c0-5.1-1.3-8.5-4.2-8.5c-2.6,0-4.2,3.3-4.2,8.5
		C104.5,71.4,106.2,74.7,108.8,74.7L108.8,74.7z"/>
	<path id="XMLID_9_" fill="#77787B" d="M125,76.9c-4.1,0-6.8-3.8-6.9-10.7c0-7,3-10.8,7.3-10.8c4.4,0,6.9,3.9,6.9,10.5
		C132.3,73,129.6,76.9,125,76.9L125,76.9z M125.2,74.7c2.8,0,4.2-3.4,4.2-8.7c0-5.1-1.3-8.5-4.2-8.5c-2.6,0-4.2,3.3-4.2,8.5
		C120.9,71.4,122.6,74.7,125.2,74.7L125.2,74.7z"/>
</g>
<g id="XMLID_165_">
	<path id="XMLID_166_" fill="#EC2727" d="M50,65.9c0,0-2.8-1.9-5.4-1.9c-0.5,0-1,0.1-1.5,0.2l-6.9,2.6c-0.6,0.3-0.7,0.8-0.6,1.2
		c0.1,0.4,0.4,0.8,0.9,0.8c0.2,0,0.4,0,0.6-0.1l4.5-1.4h0.1c0.3,0,0.5,0.3,0.6,0.6s-0.1,0.5-0.2,0.6l-9.4,4.6
		c-0.4,0.2-0.6,0.6-0.5,1c0.1,0.4,0.4,0.7,0.8,0.7c0.1,0,0.3,0,0.4-0.1l6.8-3.3c0.1,0,0.1,0,0.2,0c0.3,0,0.5,0.3,0.5,0.5
		c0.1,0.3-0.1,0.5-0.2,0.5L32,76.5c-0.4,0.2-0.6,0.6-0.5,1c0.1,0.4,0.4,0.7,0.8,0.7c0.1,0,0.3,0,0.4-0.1l8.8-4.3c0.1,0,0.1,0,0.2,0
		c0.3,0,0.5,0.3,0.5,0.5c0.1,0.3-0.1,0.5-0.2,0.5l-7.5,3.7c-0.4,0.2-0.6,0.6-0.5,1c0.1,0.4,0.4,0.7,0.8,0.7c0.1,0,0.3,0,0.4-0.1
		l7.5-3.7c0.1,0,0.1,0,0.2,0c0.3,0,0.5,0.3,0.5,0.5c0.1,0.3-0.1,0.5-0.2,0.5l-4.9,2.4c-0.4,0.2-0.6,0.6-0.5,1
		c0.1,0.4,0.4,0.7,0.8,0.7c0.1,0,0.3,0,0.4-0.1l15.1-7.2v-7.6c-0.2-0.7-0.5-1.4-0.8-2.1L50.1,66L50,65.9z"/>
	<path id="XMLID_180_" fill="#EC2727" d="M20.7,73.5h2.5v-1.2c0-2,0.9-3.6,3.6-3.5h2.1V67c0-0.1,0-0.2,0.1-0.3
		c0.1-0.3,0.4-0.4,0.7-0.4c0.1,0,0.2,0,0.3,0.1l3.9,1.9l0.5,0.3c0-0.1,0-0.1-0.1-0.2c-0.2-1.1,0.3-2.1,1.3-2.6h0.1l6.9-2.6
		c0.6-0.2,1.3-0.3,1.9-0.3c2.3,0,4.7,1.2,5.7,1.8l2.5-1.1c-0.3-0.6-0.7-1.2-1.1-1.8c-3.7-5.5-10-9.1-17.1-9.1s-13.4,3.6-17.1,9.1
		c-1.4,2.1-2.4,4.4-3,6.9C17.2,69.9,19.3,71.7,20.7,73.5z M39.1,57.1c0.5,0,0.9,0.4,0.9,0.9s-0.4,0.8-0.9,0.8s-0.8-0.4-0.8-0.8
		S38.6,57.1,39.1,57.1z M38.5,60.6c0.5,0,0.9,0.4,0.9,0.9s-0.4,0.8-0.9,0.8s-0.8-0.4-0.8-0.8C37.6,61,38,60.6,38.5,60.6z M35.4,59.6
		c0.5,0,0.8,0.4,0.8,0.9s-0.4,0.8-0.8,0.8s-0.9-0.4-0.9-0.8S34.9,59.6,35.4,59.6z M34.5,63.5c0,0.5-0.4,0.8-0.8,0.8
		c-0.5,0-0.9-0.4-0.9-0.8c0-0.5,0.4-0.9,0.9-0.9C34.1,62.7,34.5,63,34.5,63.5z M33.2,57.1c0.5,0,0.8,0.4,0.8,0.8s-0.4,0.9-0.8,0.9
		s-0.8-0.4-0.8-0.9S32.7,57.1,33.2,57.1z M30.6,60.2c0.5,0,0.9,0.4,0.9,0.8s-0.4,0.9-0.9,0.9s-0.8-0.4-0.8-0.9S30.1,60.2,30.6,60.2z
		"/>
	<path id="XMLID_186_" fill="#EC2727" d="M43.8,80.7c-1.7,6-8.5,6.2-8.7,6.2c-2.9,0-6.1-1.4-7.8-3.5c0,0-2.3-0.8-5.5,0.1
		c-1.2,0.4-2.3,1.1-3.9,1.8c3.8,5.1,9.8,8.4,16.6,8.4c7.1,0,13.4-3.6,17.1-9.1c1.8-2.7,3-5.8,3.4-9.2L43.8,80.7z"/>
	<circle id="XMLID_187_" fill="#FFFFFF" cx="33.7" cy="63.5" r="0.9"/>
	<circle id="XMLID_188_" fill="#FFFFFF" cx="35.4" cy="60.5" r="0.9"/>
	<circle id="XMLID_189_" fill="#FFFFFF" cx="33.2" cy="57.9" r="0.9"/>
	<circle id="XMLID_190_" fill="#FFFFFF" cx="39.1" cy="57.9" r="0.9"/>
	<circle id="XMLID_191_" fill="#FFFFFF" cx="38.5" cy="61.5" r="0.9"/>
	<circle id="XMLID_192_" fill="#FFFFFF" cx="30.6" cy="61" r="0.9"/>
	<path id="XMLID_193_" fill="#FFFFFF" d="M27.4,83.4c1.6,2.1,4.9,3.5,7.8,3.5c0.3,0,7.1-0.2,8.7-6.2l11.2-5.2
		c0.1-0.8,0.1-1.6,0.1-2.3c0-2.3-0.4-4.4-1-6.5l0,0v7.6l-15.1,7.2c-0.1,0.1-0.3,0.1-0.4,0.1c-0.4,0-0.7-0.4-0.8-0.7
		c-0.1-0.4,0.1-0.8,0.5-1l4.9-2.4c0.1-0.1,0.3-0.2,0.2-0.5s-0.3-0.5-0.5-0.5c-0.1,0-0.1,0-0.2,0l-7.5,3.7c-0.1,0.1-0.3,0.1-0.4,0.1
		c-0.4,0-0.8-0.4-0.8-0.7c-0.1-0.4,0.1-0.8,0.5-1l7.5-3.7c0.1-0.1,0.3-0.2,0.2-0.5s-0.3-0.5-0.5-0.5c-0.1,0-0.1,0-0.2,0l-8.8,4.3
		c-0.1,0.1-0.3,0.1-0.4,0.1c-0.4,0-0.8-0.4-0.8-0.7c-0.1-0.4,0.1-0.8,0.5-1l8.8-4.3c0.1-0.1,0.3-0.2,0.2-0.5s-0.3-0.5-0.5-0.5
		c-0.1,0-0.1,0-0.2,0l-6.8,3.3c-0.1,0.1-0.3,0.1-0.4,0.1c-0.4,0-0.8-0.4-0.8-0.7c-0.1-0.4,0.1-0.8,0.5-1l9.4-4.6
		c0.1-0.1,0.3-0.3,0.2-0.6s-0.3-0.6-0.6-0.6c-0.1,0-0.1,0-0.1,0l-4.5,1.4c-0.2,0.1-0.4,0.1-0.6,0.1c-0.5,0-0.8-0.4-0.9-0.8
		c-0.1-0.4,0-0.9,0.6-1.2l6.9-2.6c0.4-0.2,1-0.2,1.5-0.2c2.6,0,5.4,1.9,5.4,1.9l0.1,0.1l3.2-1.4l0,0c-0.2-0.4-0.4-0.8-0.6-1.2l0,0
		l-2.5,1.1c-1-0.6-3.3-1.8-5.7-1.8c-0.7,0-1.3,0.1-1.9,0.3l-6.9,2.6h-0.1c-1,0.5-1.6,1.5-1.3,2.6c0,0.1,0,0.1,0.1,0.2L34.1,68
		l-3.9-1.9c-0.1,0-0.2-0.1-0.3-0.1c-0.3,0-0.6,0.2-0.7,0.4c0,0.1-0.1,0.2-0.1,0.3v1.8H27c-2.7,0-3.6,1.6-3.6,3.5v1.2h-2.5
		c-1.4-1.8-3.5-3.7-6.2-5l0,0c-0.3,1.5-0.5,3-0.5,4.6c0,4.6,1.5,8.8,4,12.2l0,0c1.5-0.7,2.6-1.5,3.9-1.8
		C25.1,82.6,27.4,83.4,27.4,83.4z"/>
</g>
</svg>
